<?xml version="1.0" encoding="UTF-8"?> <svg xmlns="http://www.w3.org/2000/svg" fill="none" viewBox="0 0 1200 600"><path d="M283 2h1l-1 1c-1 2-2 1-2-1h2zm-4 0c0 1 0 1 0 0V1v1zm-1 0l-1 2c0 2-1 2-1 0V2h2zm-4 1l1 2c-1 0 0 0 0 0 1 0 1 0 0 0h-1l-1-1 1-1zm7 1l-1 2-1-1V4h2zm28 9v2l-1-1 1-2v1zm-30-4v3l-2 1-1-2c0-2 0-3 1 0v1l1-2c-1-1 1-2 1-1zm-1 2l1 1-1-1zm-2-1l-1 1v2l1 1h-2v2-6h2zm20 8l-1-1h1v1zm897 151l1 2h-2c-1-1-2-3-1-4l2 2zM308 22v-1 1zm-14-2l-1 1 1-1c1 0 1 0 0 0zm9 4v2-3 1zm-17-3h-1 1zm11 5h1v1l-1-1v-1 1zm-5 0v2l-1-1-1-1c0 1-1 1 0 0h1l1-1v1zm-11-2l2 1v1l-2 1-1 1 1 1h1c0 2-1 3-2 3v-1 1h-1l1-4v-2h-1v-1h-1l-1 2h2v2l-1 1-1 1-2-1v-1l-1-1-2-1-1-1s0-1 0 0h-2v-2h2c1-2 5-3 5-1 2-1 4 0 5 1zm-2 0h1c0 1 0 0 0 0l-1-1v1zm-4 3c0 1 0 1 0 0v-1 1zm1 1v-1 1zm-4-2v1l1-1h-1zm31 2c0 1 0 1 0 0v2c-1 1-2 0-1-2h1zm-8-1h-1l1-1v1zm-10-2l1 2-1 2h-1c0-1 0-1 0 0v2h-1l-1 1h1l1 1h-3c0 1 0 1 0 0l1-1 1-3v-3l1-1h1zm-2 3v1l1-1h-1zm725 116c0-1 1-1 0 0zM323 32h-1v-1h1v1zm-23-3h-1v1c0 1 0 1 0 0l-1-1h2zm-31-5h-2 2zm43 10h-1v-1l1 1zm671 110l-1 1v-2l1 1zm-2 0v1h-2c0-1 0-1 0 0h-1l1-2v1h1c0-2 0-2 1 0zm-5-1c0 1-1 0 0 0 0-1 0-1 0 0zM304 33h-2l1-1 1 1zm671 110v1h-1l1-1zM304 34l-1 2v-1l1-1zm-41-6l-1 3-1-2c0-1 0-2 1-1h1zm-3 1h-1v-1h1v1zM86 0l-1 1V0h1zm921 153v2l-1-1 1-2v1zm3 1l-1 2v-1c0-2 1-2 1-1zm-4-1l-1 2h-3v-1l-1-1 1 1h1l1-1h2zM181 18l1 1s-1 0 0 0v1h-1c0-1 0-1 0 0v1c1 1 1 0 2-1 0-1 0-1 0 0v2c0 1 0 1 0 0l1-1h3l1 1 1 1c0-1 0-1 0 0l1-1 1 1 1 1v3h1c1-1 1-1 0 0l1 1v-3l1 1h1v1h1v-1l1-1 2 2c0 1 0 1 0 0l1 1h1l5 2c0 1 0 1 0 0l-2 1v2l2-3h1v1h2c0 1 0 1 0 0h2l-1 4c0 2 0 3 1 2v1l1-2h-1c0 1 0 1 0 0v-3h1v-1h1c0-1 0-1 0 0l1 1h2l1 2v2h1l1 1v-3h-2l1-1h1c0-1 0-1 0 0h1v1l1 1c0-2 3-1 3 0s0 1 0 0h1l1 1v1h2v1l-1 1h1l-1 2v1c0-1 1-1 1 1l3-1v-2l1-3v2l2-1v-1l1 3h1l1-2v-1h-1v-1h1c0 1 1 1 0 0h1v3h1v2l1-3h-1v-1h3v1l-1 1h1c1-1 1-1 0 0l1 1h2c-1 1 0 2 1 1v-1c0-1 0-1 0 0l1-1v1h1v-1l1 1h1v-1h1v1c1 0 1 0 0 0v1l-1 1v3s0 1 0 0h1v-2h1v-1l1-2 1-2 1 2 1 1v1c-1 0 0 0 0 0v-3h1v-3c0-3 3-2 3 2h1l1-2h1l1-1-1 2v6l2 3 1 1-1 1 1 1-1 3c-1 4-1 5 1 5l1 2 1 1v-1h2v2h1l1-2 1 1c-1 1 0 1 0 0h2c0 1 0 0 0 0l1-1v-3l1 3h1c0-1 0-1 0 0l1 3h1c-1 1 0 1 0 0l1 1c0 1 0 1 0 0v-2h1l1 2c1 0 2 1 1 2h-1v-1 2h-2s0 1 0 0-2-2-3-1l1 1v1l-1 1-1-2v-2c1 0 1-1 0 0h-2v-1l1-1 1-1-2 1h-2v1h-2v2c1-1 1 0 0 0v1l1-1 2 1c1 2 1 2 2 1h1l-1 2c0 1-1 1 0 0l-1-1-1 2h-1v2l3 4c0-1 1 0 0 0v1l-1 1 1 1c2 1 1 2-2 2l-2 1-1 2v-2c-1-2-1-3-1-1h-1l1-3-1 1-1 1h-1c0 1 0 0 0 0v-1h-2v-3l1-1-2 1v-1h-1s-1 0 0 0v2h-3v-2h-1v1l-1 1-1-1c1 0 0 0 0 0l-1 2v2h1l1 3 5 5v1l1 1 1-1h2l1-1v-2h1v-2h1v1h1c0 1 0 1 0 0h1v2l1 3c1 0 1 0 0 0v1h2v2l-1 3v1h-1c0 1 0 0 0 0l1-2-1-1-1 2-1 1c-1-2-4-1-4 0l-1 1c-1-1-1 0-1 1 0 3 0 3 1 2 0 0 1 0 0 0v-2l1-1v-1l1 2v2c1 2 0 3-1 3v2l2-1c0-2 0-3 1-1l1-1 1 1 1-1 1-1h1l1 1h1v1h1v1c0-1 0 0 0 0h3l1 1 1 1-1 1 1 1 1 1v2l2 1v1h1l1 3v2l1-1v-3c1 0 1-1 0 0v-1h1v3h1v1h1c1-2 1-1 1 1v1h-1c-1 0-1 0 0 0v1h1l1 1 1 1 1-1 1 1c-1 1 0 1 0 0h2l4 3h2c0 1 1 2 3 2l2 1h1v1l-1 1c0-1-1 0 0 0v1h1l2-2 2-2v1l-1 2 3-1h2c1-1 2 0 1 1l1 1 2 1 1 1h-3l1 1v1h4l2-1c1 1 2 0 3-1l1-1 1-2c1-1 1-1 1 1 0 1 0 1 0 0l3-1 1 1 1 1v-1l1-1h2l2-1-1 1v2l1-1 1-2v1l1 1 1-1v-1 1h1c0-1 0-1 0 0h1l2 1 1-2h-2l-1-1-1-1-1 1-2-1-1-1-4-2-2-2-1-1h-1v-1l-1 1-1-1v-1h-2l1-2v-2l-1 1v1l-1-1h-1c0-1 0-1 0 0 1 0 2-1 1-2h-1c0 1-1 1 0 0l1-2 2 1 1 1h2l1-1v-1l1-1v-1l-1-1-1-3-3-1-3-1h-1l-1-1-2 1h-1v-2l-1-1h-1l-1-1-1-1c0-1 0-1 0 0h-1l1-2h-1l-1 1c0-1 0-1 0 0h-2l-2-1-1-1h-2v-1l-1-1h-1l-1-1v-3 1h1v-2h-1l-1-1h-2l-1-1c-1 0-2-1-1-2h1l1 1 1-1 1-1v-1h1l1-1c1 0 1 0 0 0l1 1-1 2v1h3l-1 1v1l2-2v-1 1l1 1v-1h2v1h1c1 2 1 2 2 0h1l-1 1c0-1 0 0 0 0v2c1 1 1 1 1-1s0-2 1-1h2l1-1 1 1v1h1l1 1v1h1v1c1 1 1 0 1-1l1-1c1 0 1 0 0 0l1 1 5 1h4c2 0 2 0 2 2h1v-1h1l1 1h2c0-1 0-1 0 0h2l1 1 1-1h2l1 2v1l1-1c0 1 0 1 0 0v-2c1-1 1 0 1 1v4c0-1 0-1 0 0l1-2 1-1v2l1-1 2-1 2 1h5l3 1 1-2v-1h1v2l1-1v1h1v1h1l6 1h1l2 1h1l1 1h1l1 2 1-1s0-1 0 0h1l2 1c0 1 0 1 0 0l2-1 1 1h2l3 2h1l5 1 1 2c-1 1-1 1 0 0 0-2 2-3 3-2h1l1 1v-1l1-1v2l1 1 2-2 3 2 1-1 1 1c-1 1-1 1 0 0h1c0 1 0 1 0 0l1-1v-1l2-1c1 1 1 0 2-1 0-1 0-1 0 0l1 1c0-2 0-2-2-3-1 0-2-1-1-2h-2v-1c0-1 0-1 0 0h-1v-1l1-1h-1l-1-1-2-1-4-3v-2 2l-2-1-1-1h-1l-1-1h-1v-2c1-1 0-2-3-2l-1-1-1-1h-2v-1l-1-1 1-1v-1 2h1v2l1-1v-2h1v3l1 1v-4 1l1 2 1-3v1l1 1v1h4l2-3h4v3l1-1 1-2 1 2c0 1 0 1 0 0h1l2-1h1v-2l-2-1v-2h2l1 1h5l1-1c0 1 0 1 0 0h1v2c1-2 1-2 3-1l2 1h1l1 1 1-1h3l-1 1 1 1 1-1 1-1v4l1-1v-1h2l1-1 2-1-1-1-1-2c-1-1-2-1-1-2 0-1 1-1 1 1h3v1c1-3 1-3 2-2h5v2l2-1 2-1v-1 1l2 1 5 3h5l1 1h2l-1-1v-2h1l4 2v1h1s1 0 0 0h1l1 1 2 1c-1 1 0 1 0 0h3l3 1 3 1 1 1v1l1-1 1-1 1 1v1l3 1v1h2l2-1v1h1l1 1h3l3 1 3 1h4l3 2 1-1c0-1 0-1 0 0h1v1h6l1 1h1l2 1h4l3 1v1h1l1 1h1c1-2 2-2 3-1 0 1 0 1 0 0h2l2 1 1 1h1l1-2v2c0 1 0 1 0 0h3l1 1s0 1 0 0h8l2 1h5l2 1h1l1 1h1v-1h2l1 1h3c0-1 0-1 0 0h1l2 1c0 1 0 1 0 0l2 1 1 2 1-1c0-1 0-1 0 0h1v4l1-2c0-2 0-2 1-1h1v2s0 1 0 0l1-1v-1h-1l1-1c0 1 0 1 0 0l1 2v1l1-3v3l2 1 1-2c0-1 0-1 0 0l1 1 1 1c0 2 1 2 1-1l1-2 1 1-1 2 1 2v-2c0-2 1-2 2-3l1 1c0 1 0 1 0 0 1-1 3 0 3 1h2l2 1h1l1-1 3 1c0-1 0-1 0 0h2l2 2s0 1 0 0v1h-1l-1-1v2h1v1l1 1v-1l1-1v-1h2l1 2v-1l1-1h1l1 1h1v7l1-2-1-1v-1l1-1v-1l1-1h1c0 1 0 1 0 0s0-2 2-1l2 1h1v2c0 1 0 1 0 0h-2l-1 2c-1 0-1 0 0 0h1l1-1v2h2l1-1c0-1 0-1 0 0 0 2 2 4 2 3h1v-1h1c0 1 0 1 0 0l1-2c0-1 0-1 0 0 0 0 0 1 0 0l1 1c1 1 1 0 1-1v-1l1 2c0 2 0 2 2 3l2-1v3l1-1 1-1-1-1-1-1c0-1 0-1 0 0h-1v-2 1l-1 2-1-1v-3c1 0 2 0 1 1v1l2-1 1 1h2c-1 1 0 2 1 1l1 1h2l-1 1v2h-1v-1h-3v2h1s0-1 0 0l1-1h1l-1 2h-1 1v1l1-1 2-3v-1l2-1h1v-1 5h-1v2h2c0-1 0-1 0 0v1c1 1 1 0 1-1l-1-1 1-2 1 1h1v-1 1h1v-2c0 1 0 0 0 0v-1h1l2 1v1h1l-1 2v1l-1 1v1l1-1 2-1h2l-1-1v-3h1s0 1 0 0v1l1 3h1l1-2v-1 1h1v4h1l-1 1-1 1 1-1 1-2 1-2v4h1c0 1 0 1 0 0v-1l1-1h-1l-1-1h1v-1h1l1-1c0-1 1-3 2-2 0 0 0 1 0 0l1 1 1 1 1 1v1h1v-1 2l1 1v-2l1-1h1c0 1 0 1 0 0h2l1 2v1l1-1c0-1 0-1 0 0v2l1 1v1l-1 1v2l1-1c1 1 1 1 1-1l1-3v5l1-1v-1 3l-1 1c0 1 1 1 2-1v-2h1l1 1 2-1v-2 1c0 2 1 2 2 0h3l1-1 1-2v3l1 1v2h1l-1 1v1l1-1h2l-1-1c-1 0-2-1-1-2h1v1h1v4l1-3c0-3 0-5-1-4h-3v-1c0-2 1-1 1 0 1 1 1 0 1-1l1-1 1 1h1c0 1 0 1 0 0l1 1h1v6l2-4 2-2v1l-1 1c0 2 1 2 2 0 0-1 0-1 0 0l1 2h1l1-2 1 1v2h1l1 1v-3h1l1-1v2l-1 1v1l1-2 1 1c0 1 0 2 1 1v-1c1 0 1 0 0 0l1 1 1-2c1-2 2-2 1 1v2h1v-2 2l1 1 1-1 1-1-1-1v-1h1c0-1 1-1 0 0l1 1v-2l1-1v2h5l-1 1-1 1c0 1 0 1 0 0h2l1 1v2h1v1l1-1v-1l1 4h2l1 3v-1l1-3 1-2c1 1 2 0 2-1l1-1v4l1-1 1-2-1 3v2h2v2l1-1v-2l-1-1v-1h2l1-3 1-1v3l-1 2-1 1v1l2-2c0-1 0-1 0 0v3l1 3 1-1-1 2-1 4c0 2 0 3-1 2v1l-1 1-3-1-2-1h-1l-1-1h-1l-2 1-3-1h-6l-7-1c0-1 0-1 0 0l-5-1h-7c0 1 0 1 0 0s-2-3-3-1v1h-1v-3s-1 0 0 0l-1 2-1 1-1-1h-3l-1-3v-2l-1 2v1c-1 2-1 0-1-1v-2 1l-1 4v-3h-1l-3 1h-9l-2-1-1-1c1-1 1-1 0 0h-1l-1-1c0-1 0-1 0 0 0 2-2 2-2 0v-2 2l-1 1c0 1 0 0 0 0h-3l-1 1-1-2c0-1 0-1 0 0l-1 1c-1 0-1 0 0 0v-2h-2c0 1 0 0 0 0h-1l-1-1h-1v1l-1-1h-1c-1-1-2 0-2 1h-2c-1-2-1-2-2-1l-3 2-1-1v-1h1-1l-1-1h-2c0-2 0-2-1 0l-1 1h-2s0-1 0 0l-1-1v-1l-1 1h-1l-1 1-1-1-2 1c0 1-1 1-1-1v-2h2v-1h-2c-1-1-1 0-1 2v1l-1 1-1-2c0-1 0-1 0 0v1h-1c0 1 0 0 0 0v-2l-1 1c-1 2-2 1-1 0l1-1-2 1-1 1h-2c0 1 0 0 0 0h-2c-1 0-1 0 0 0l1-2h-1c0 1 0 0 0 0v-1l-1 1v1-1l-1 1h-2l-1 1h-1c0-2-1-2-2 0l-1 1 1-1v-2l-1-1c1-1 1-1 0 0l-2-1-1-1v1l-2 1-1-1v2h-3v1-4h-1v2h-9l-3 1c0 1 1 2 2 1h2v3l1-2c1-1 3-2 2 0h1l1-1v-1 1l1 1h1c0 1 1 2 2 1 2-1 2-1 2 1h1l1 2 1-1 1 1v1l2 1h1v-1c0-1 0-1 0 0h5l1-1 2 1v1l2 3 1-1c0-2 0-3 1-2l1-1v3h1s0-2 0 0l1-2c-1 0 0-1 0 0v3l-1 1 1-1c1-3 2-3 2-1h1c0-2 0-2 0 0l1 1 1-1 1 1h1c1-1 1-1 0 0 0 2 0 3 1 2h3c0 2 0 2 1 1l1-1 1-1 2 1-1 1h1c0-1 0-1 0 0h1v3l1-2s0-1 0 0v-3l1 1v1h1l1-1h1c-1 1 1 3 1 2v-1l-1-1h4v1l2 1h1c0-1 0-1 0 0l1-1v3h1l1-1 1-1 1 1h6l1 1 1 1v-1h2v1l1 1c-1 1 0 1 1 2 1 0 2 0 1-3v-1l1 2v1l1-2s1 0 0 0l1 2v-2l1 1v3l1 1v-2h2v-1h1l1-1c0 1 0 1 0 0l1-1v1l1 1h-1l-1 1v4h-1 2l3-6h3l1 1 1 2 1 1v-1l1-2v1l1 1h2l1 1v1h1v1c1 1 1 0 1-1v-1h1c0-1 0-1 0 0h1c1-1 1-1 0 0 0 1 0 3 1 2v-1h1l1-1 1 1 1-1 1 1v1h1c1-1 2-2 2 0h1c1 2 1 2 2 0 0-1 0-1 0 0v1h2l1-1h1l2 1c1-1 1-1 1 1h1l-1 2v1l2-1v-1l1-1 1-2v1l1 1h4l2 1c1-1 2 0 2 1l1-1h1c-1 1 0 1 0 0h1v2c-1 3 0 4 1 4h2c1-1 1-1 1 1l-1-1v2l2-1v-2h1c0 1 0 1 0 0l1-1v-1h-1 1c0 2 1 2 1 0 1-1 1 0 1 1v1l-1 1h-1v1h1l1-1h1l1-4v1l1 3c0 1 0 1 0 0h1v1h1l1-1v-3l1 1v1c0 1 0 0 0 0l2-3v2l-1 1 1 2 1-2 1-2 2-1v2l-2 1v1l-1 1 1 1h1v-1c1-2 3-2 3 0l1 1 1 1h1l1-1v1l-1 1h1l1 1v-3l2-1c1-1 2-1 2 2v2l1-1v-1h5v1h1c0 2 0 2 0 0 0-1 2-2 2 0l1 1v-1h5c0-1 0-1 0 0l1 1 1 1v1h1l2-1 2 1h3l1-1h1v1c0 1 0 1 0 0h2l1-2h1v1h-1l-1 2h1l1-1h1l1 1v-1l1-2v2l1 2v-1l1-1v-1h1v2h3l1-1v-1l1 1v1h1l1-1h1v2l1 2v1-1l1-1h2v-1h2l1 1 1 1h2l1-1h1c0-1 0-1 0 0h1l1 1c0 1 0 1 0 0h1c0 1 2 1 2-1 1-2 1-2 1 0l1 1h2v-1h4l1 1v2h4v-1l-1-1h2v1h3l1-1c0-1 0-1 0 0h2v-2l2-1 2 2h1l1-1v1h1v-1l2 1c2 0 2 0 2-2l1-2-1 2 1 2 1 1h1l1-1h2l1 1 1-1 2-1h1v-1l1-4v-2l1 1v2h-1v1c2 0 2 1 2 2h3l1-1 1-3 1-1 1-1-1 2h2v-1l1-1 1-1 1-1 1-1v2c0 1 0 1 0 0h3l1 1-1 2v2l1-1c0-2 0-2 1-1v1l1-1v-2l1 1 1 1v-1h-1l1-1 2-3c0-2-2-3-3-2l-2-3h1l1-2v1c0 3 0 3 1 2l1-1 1-1v-2c1-1 1-1 1 1v2h2v1l1-1v-1 6l1-1v-2l1 1v2-1h1l1-1c-1-1 1-3 2-2h3c1 0 1 2-1 2l-1 1 1 1h1c0-1 0 0 0 0l1 2 3-3h1l1-2 1-2h1l1-1v1l1 1 2 1 1-1 2-1h2l1-1h4l1 1 1-1h1v-1h3s0-1 0 0l1-1 1-1v3c0 1 0 0 0 0l1-2v-2h-6l-1 1v-1h-3l-1-1v-2h3c0-1 0-1 0 0l2 1 1 1 1-1v-1l1 2 1-1h1s0-1 0 0l-1-1 2-1h2l1-1h2v-1h3v-2c0-2 0-2-1-1s-1 1 0 0v-2h1l1 1c2 0 2 1 1 2v1l2-3 2-1 1 1-2 1-2 2c-1 1-1 2 1 1h1l1-1 1-1v2c1 1 1 1 1-1v-1 3l1-3v2c0 1 1 2 2 1l1 1s0 1 0 0l1 1h1c0-1 1-1 1 1h3l1-1 2-2 1-1h5v-1h1l1 2c0 1 0 1 0 0 2-1 4 1 4 3h1c-1 1-1 1 0 0h1v2h1c0-1 0-1 0 0l1 1 1 1 1-1v1l-1 1v2h2l1 3h1l1 1 1 2h2v8l1-1h1v-1h1c1 1 1 0 1-1v-2h-1l-1 1v1l-1-2 1-1v-1l1-1h1l1-1c0 1 0 0 0 0h1v1l1-1h1c-1 2 0 2 1 0 0-1-2-2-3-1l2-2v-1h1l2 1v1l1-1v-1l1 1v1l1 1v1c1-1 2 1 1 3l-2 1-1 4v4l1 1c0 1 0 1 0 0l1-2h1v-3l-1 1-1 1v-2l1-2h1l1-1v-1c0-1 0-1 0 0h1c0-2 0-2 0 0v2l-1 2h1l2-3v1c0 1 0 1 0 0l1-1c0 1 0 4-1 3l-1 1 1 2 1-1c1 2 2 1 2 0 0-2 0-2 1 0l1 1v2l1-1v-1l1 1 1 4c0 1 0 1 0 0h3l1 2h1l2-2 1-2h1c0 2 1 5 2 3h2l-1 3v-1h-2l-1-1h-1v-1l-1-1h1v1h-1v2c0 3 0 3-1 2h-1l1 2-1 2-1-2-2-1h-3v-2l-1 1v2l1 2v1h1l1-1h1v1l-2 1-1 1s0 1 0 0v-1l-1 1c0 1 0 1 0 0h-1l-1 1v-1h-1l-1-1v-2l1-2 1-2v-2l-1 1-1 1 1-2v-4l-1 3v2l-1 2h-1v-1l-1-1h1l1-1c0-3-1-2-2 1l-2 2v2c0 2 0 2 0 0h-1l2 3c1-1 1 0 1 1v1h2l1 1h-2l-1 1h-1s0-1 0 0v-2l-1-1-1-1c1 0 1 0 0 0l-1 1-1-1c0-2 0-3 1-2l1-2v-3c-1-1-2 1-1 2v1h-3c-1 1 0 1 0 0 1-1 1 1 1 2h-2l-1-1 1-2-1 1v-4l1-1c0-1 0-2-1-1h-1v4c0 2 0 2-2 2-2-1-2 0-2 1v1l-1-3c1-1 1-1 0 0 0 1-1 1-1-1h-1l-1 1c-2-1-2-1-3 1l-1 1-1-1-2 1 1 1h1v1h2l1-1v-2l1 2 1 1h1v2l1 1-1 1h-2l-1 1-1 1h3v2l-1 1-1 1h-1l-1-1c-1 1 0 2 1 2v1l-1 2h3l-1-1v-1l3-2h-2l1-1v-1l1-2v2h1l2-2v5l2 1v1l1 1h-1v1h1l1-1 1-1v-1l1 3v-3l1 2h1v-1c-1-1 0-1 1-1v3l1-2h1l1-1h-3v-2 1h-1l1-2c2-1 3 0 3 1l1-1h1v1l1-1 1-2h4l1-1v1h1c0-1 0-1 0 0l1 1 1-1v-1h1l1 1c1 1 2-1 1-3h-2c-2 0-2 0-1-1l1-1h3v1h2l2 1c0 1 0 1 0 0l1-2c0 1 0 0 0 0h1l3-1 3-1h-1c-1-1 0-2 1-2l1 1c0 1 2 2 3 1l4 1h3l1-1h3v-2h1v1c1 1 0 1-1 2l-2 1v5-2l1-1 1-1h1v1h2l7 1h1v-2h-1v-1h2v2h1s1 0 0 0l1 1v-3l3-1h1l1-1 1 1v1s2-4 1-5h1l1 1 2-1 1-2c1 0 3 2 2 3 0 1 0 0 0 0h-2l-2 1h-1v2l-1 1c-1 1-1 1 0 0h1l-3 1h-2l-2 1v-1l1-1-1 1h-1v1c0 1 1 2 2 1l3-1h3v-1l1-1v2l1-1 1 1c0 1 0 1 0 0h4l2 1-1 2-1 1h1l1 1v1l2-1 1-1 1-1v1h1l3-2 2-1h4l1 1v-1l1-1c0 2 2 2 3 0h1s2 0 1-1h1c2 0 2 1 0 1v3h2l2-1 1 1c0 1 2 1 4-1h2v1l-1 1h-2l-1 1h1c1-1 2 0 3 1v4l-1 2v2l1 1-1 1-1 1h1v1h5c1-1 1 0 1 1l-2 1v1l1 2 2-1h1c1 1 1 1 1-1l1-2v5l1 1h-1v1h-1v5c1-2 1-3 1-1v1c-1 1 2 2 2 1l1-1 1-2v2l-1 1c-1 2 0 4 1 3v2h4l2-1v2l-1 1c-1-1-2 0-2 1l-2 1v-3l-2 1v1l2-2-1 2 1 2h6l-1 1h-1l1 1c1 1 0 3-1 2l-1 1-1 1v-2l-1 2v5l1 1h2c1-1 1-1 0 0h1c1-1 1-1 1 1l1-1 1-1v-1l1-5v-1l1-1c1 1 1 0 2-2 1 0 1-1 0 0v-2c1-1 1-1 1 1v2l2 4 2-3 1 1-1 3h-2l-1 1v-1h-1l-2 1-1-1c1 0 1 0 0 0l-1 1v2c-1 2 0 3 1 2s1-1 0 0v2h-1l-1 1v2c0 2 1 2 1 1h1l-1-2h1s0 1 0 0v3c0 1-1 2-3 1l-2 1 2 1 2 1v2l1 3c0 1 1 2 2 1 0-1 0-1 0 0l-1 2v-1l-1 1c-1 1-1 1-2-1v-1 1l-1 3h-5v4h-1v-1l-1-1v4l1 1c1-1 1 0 0 0v1c1 1 1 0 1-1s1-2 2-1v1h3l2-2v-1h-1l1-1v1l2 1h2v4l1-1v-1l1-1 1 1c0 1 0 1 0 0h2l-1 2-1 3-1 1h-1l2 2c1 1 0 2-1 1-1 0-2 0-1-2l-1-1-1-1-1 1c0 2-3 4-3 3h-1v1h-1l2 2v1h1l2-1c1 1 1 1 1-1h2l1 2 2 3v1h-2v-1l-1-1v1h-1v1c1 1 0 4-1 4-2 1-3 0-4-1 0-1 0-1 0 0l-1 1c-1 0-2 1-2 3h-3l-1 1-2 1-1 2v1c1-2 2-1 1 1v1h2l-2 1-1 1c-1 0-1 0 0 0l-1 2h-1v-1l-1 1h-2v1l-1 1c-2 0-2 1-1 2l1 3h-1l-1-1-2 1h-1v1h3c2-1 3-1 3-3l1-1v3l-1 1c0 1-1 2-3 2h-3l-3 4-1 1 1 1v-2l1-1v3l-1 1-1 1 1 1c0-1 0 0 0 0 1 1-2 3-3 3h-2v-1l-1 1-1-1h-1l-2 1v-1l-1-1v1l-1 1h-1l-1 2v-1l-1-1v3c-1 0-2 1-1 2h2l1-2 1-1 2 1h-2v3h1l2-1 2-1 2-1-1 2v1h1l-2 2h-2v1h-1l-1 1-1 1-2 2h-6l-1 1v1h1v1h1l1 1-5 2-1 1c-1 1-1 1-1-1v-1c0 1 0 0 0 0-1-1 0-1 0 0l1-1h1c1-1 0-1-1-1h-3l-1 1c0-1 0-1 0 0l1 1v1h-2v1l1 1h-1v2l-1 1-1 3h-1v-1c1 0 1 0 0 0h-3v3l1 2-2 3v4h4l1-1 3-1v-1 2l-1 1-1 2v1c0 2 0 3 1 1h1l2-1c1-1 2-2 3-1l-1 1h-1c-1 1 0 4 1 4l-1 1-1 1v-2c0-1 0-1 0 0s-2 4-3 3l1-2c0-2-1-2-2 0l-1 1-1 3h-1c-2-1-3 1-2 2l1 1h-1l-4 7v3l-1 2v5l-1 1h-1v1l-1 1-1 2v1h-1l-1 2v-3l-1-1 1-2 1-1v2l1-1v-1l2-4c1-3 0-4-2-3l-3 4v1l-1 1-1 1-1-1v-1c1-2 0-2-1-1-2 1-2 2-1 2v3c0 3-1 5-3 4v-1l2-3-1-1-1-1v-3l-1-2-1 3 1 2h1l-1 3c-1 2-2 2-2 1l-1-1-1 1 2 1h2c1-1 1-1 0 0l-1 1c-2 0-3 4-2 4v1h-2l-1 1c0 2 0 2-1 1h-2c0 1 0 1 0 0v-1l-1 1-1 1v1l-1-1c1 0 0 0 0 0l-1 1h-3l-3 1h-4v-1l-1 1c0 1 0 1 0 0l-1 1-1-1c-1-2-2-2-3 1v1h-1l-2 1-3 1h-1l-1 1h-3l-1 1v2c0 1 0 1 0 0l1-1v3l1 1h3l1-1v4c-1-1-2 0-2 1l-2 1v-1l-1-1v2h-1l-1-2-1 1-2 1v-1 2h-1l-1-1-1-1-1 2-1 5c0 1 0 1 0 0h-1v-1c0-3 0-3-1-2h-2v3l1 2h-4l-1 1-1 1h1v1l1 1v2l-1 2c1-1 1-1 1 1l-1 1-3 4c-1 3-1 3-1 0l1-1 1-2-1-1-1 4-1 2v-5l-1-1h-1v2h-1l1 1v1h-1v-3c0-2 0-2-1 1l1 3v2h-2v-1h-1v-1c1-2 1-2-1-1-2 0-2 2-1 2v2l-1-2c0-1 0-2-1-1v2h-1v-1 1l-1-1c0-1 0-1 0 0l-2 1-1 3v1c-1-1-1 1-1 2h1l1 1v3s0 1 0 0l-1 1v1l-1 2-1 2v2c-1 1 0 1 1 2v3l2-1 1 1c0 2 0 2 1 1 0 0 0-1 0 0h1l1 1c-1 1-1 1 0 0s1 0 1 1l-3 3-2 5v5l-1 3v5l-1 1h1l1-1 1-1v-1l1-2c2-1 2-1 2 1l1 2h4c1 1 0 4-1 4l-2 4-1 2v-1l-1-1h-1v2l-1 4 1 3c1-1 7 1 7 2h-1v4c0 2-1 2-2 3l-1 1v3l1 3h-1l1 1c1-1 1 1-1 2l-1 3v3l1 3 1 1v2h-1l-1 1-2 3v2l-1 1-1-2c0-2 0-2-1-1l-1 1-2 1-2 1-4 5-1 2h-3v1l-2 1c-2 1-3 0-3-1v-2l-1-2v1l-1 4 1 4-1 2v5l1 2-2 1v-4c0-1 0-2-1-1l-1-2v-3h-1v1l-1-1v-2l-1 1-2 2v-2l-1 1v1h-3l1-1h-1l-2 1h-3l-1-1h-9c-3 0-3 0-2-1v-3l-1-1h-1l1-1 2-2 3-1v-1l2-1h1l3-2-1-3h-2l-2-1-1-1 1-2v-2c0-1 0-1 0 0l-4-1-1-1h-2v-2l1-1 1 1c0 1 0 1 0 0v-2c-2 0 0-2 2-1l1-1c0-2-1-3-2-3h-4c0 1 0 0 0 0v-2l-1 1v1h-1l-1 1h-4c-2 1-2 1-3-1v-1l-3 1-2-1 2-1h4l1 1 2-1 1-1 1 1v-1l1-1c2 1 2-1 1-2l-1-1v-1c-1 1-4 1-5-1h-4c0 1-6 2-13 1h-5l-1-1c0-1 0-1 0 0-2 2-3 3-5 3-1-1-3-2-2-3l-1-1h-1v1l1 1h-2l-3 1-1 1v1l-1-1-1-1-1-1h-1c0 1 0 1 0 0v-1l1-1h-2v3h-2c-2 1-5 0-5-1h-1c-1 1-2 0-2-1s-1-1-3 1l-4 1h-2l-1-1v1c1 0 1 0 0 0l-1-1v-1c-1 2-2 3-2 1l-1-2h-2l-2-1-2 1h-6l-3-1v1l-2-2c1 0 1 0 0 0v1l-1 1v-2h-1c0 2 0 2-2 2h-2l-5-1-1-1v-1l-1 2v1h-2c-2 1-3 1-3-1v-1l-1 2v1c1 0 1 0 0 0v2l-1 2-1-1-1-1c0 1 0 1 0 0h-2v-1l-1 1c0 1 0 1 0 0h-6v-1l-1-2v1l-1 2c-1 2-3 2-3-1l-1-1c0 1 0 3 1 2v1h-5v-3l-1 3h-1c-1 0-1 0 0 0v-2l-1 1c-1 2-1 2-2 1l-1-1-1-1h-2v-1h-1l-2 1h-4v-1h-2l-1-1c0-1 0-1 0 0h-1v-1c0-1 0 0 0 0v1h-1c1 2 0 2-1 1l-1-1-2 1-3-1h-1l-1 1h-9l-2-1-2 1-9-1-6-1s-1 0 0 0l-1-1-1 1-1-1v-1l-1 1-2 1h-1v-3 1c-1 2-4 3-6 2h-1v-1h-1c-1 1-3 1-4-1v1h-4s0-1 0 0l-1-1h-6l-1-2h-1c-1 1-1 1 0 0h7c1 0 2 0 1 1h1c1-1 2 0 2 1l1-1 1-1h3c-1 0 0 0 0 0h3c2 0 3 0 2 1v1h-1v1c1 1 1 0 1-1 1-2 2-2 2-1s0 1 0 0l1-1v-2l-1-2h-1l-1 1-8-1h-3c-2 0-4 0-3-2h-1v1c-1 2-1 2-3 0l-1 1-1-2h-1c-1 1-2 1-2-1l-1 1c0 1-1 2-2 1h-1l-1-2v-3 1h-1l-1 2c0 1 0 1 0 0v1h-10c-2 0-2 0-2-2l-1 1-2 1-2-2h-2l-1 1h-6l-1-1h-9l-1-1c0-1 0-1 0 0h1l-1-1v-2h-2v1h1v2h-1l-2-1h-6l-5-1h-5l-2-1h-4v1h-1l-1-1-1-1h-2c0 2 0 2-1 0h-1l-2 1h-9v-1l-2-1c-1 1-2 0-2-1 0 0 0-1 0 0 0 0-1 0 0 0l-2 1-1-1h-2l-1-1v-1l-1 1h-1v-2 1l-1 2h-1v-1h-9l-6-2-2 1h-3l-3-1-4-1h-6l-5-1h-2v-1c-1 2-6 0-6-1s0-1 0 0l-1 1-2-1-3-1s-1 0 0 0c0 1-2 1-2-1h-2l-2 1-7-1-5-1 1-1-1-2v1c0 1 0 2-2 2h-4l-3-1v-1c0-2 0-2-1-1 0 2-2 2-2 0l-1 1-2 1-2-1-4-1-5-3 1-1-1 1-1 1-33-6c1-1 0-1 0 0h-3c-1 1-1 1 0 0v-2l-1 1-1 1h-5l-1-1-2-1c-1 1-2 0-1-1l-1 1c-1 1-4 1-4-1h-1c0 1-1 1-1-1l-1-1v2h-2v-2l-2 1-1 1-1-1c0-1 0-1 0 0l-1-1-1-2v2l-1 1h-1l-1-1v-1h-2c-1 1-1 0-2-1v-3c1 1 1 1 1-2v-4l1-1h1c0 1 0 1 0 0h4v3l1-1v1h1l1 1c-1-1 0-3 1-4l1 1v2-2h1v3l1-2c0-1 0-2 1-1v1l-1 1v2h1c2-1 2-1 1-2v-2l2 1-1 2v5h1v-6 2l1-2 1-1c1 0 2 1 1 2v1h1v-1l1-1 1-1v3c0 2 0 2 1 0l1-1 2 1 3 3 1-1v-1l1 1h4c1-1 1-1 1 1v1l1-2v-1 2c0 1 2 2 3 1 0-1 1-1 0 0h2l2 1h1l1 1h-1v2l1-1 1-1h3l1 1h1c0-2 1-2 4-1l2-1h3c1-2 1-2-2-2l-4-2v-1h2l2 1h3c0-2-1-4-2-3v-1l-7-1-1-1h-1l-2-1-1-1v-1c-1 2-3 2-3 1l-6-1-2-1h-5l-1-3h4l3 1h1v2l1-1c0-1 2-1 2 1h1l1-1s0-1 0 0h3l2 1h1c1 0 2 0 1 1h3v1l1-1v-1l10 2 2 1 1 1 1 1c0 1 0 1 0 0 0-2 0-2 1 0v1h1l1-1v-1h1v1h1l1-1c2 1 4 0 5-1v1l3 1c0-1 0-1 0 0l8 1 6 2h8l2 1 3-1-1-1v-2 1l1 1h4l1 1h1c-1 1-1 1 0 0l1 1c0 1 0 1 0 0l1-1 1-1v1l2 1h2l1-1 2-1-1-1-3-1h-4l-3-1h-5l-5-2h-3l-2-1-3-1h-5l-1-1h-1l-2 1-15-4h3l1-2-3-1-48-11c-1 1-1 1-7-1l-11-2h-2l-1-1h-3l-4-1-3-1h-1s-2 0-2-2l-3 1-6-2h-1c0-1 0-1 0 0h-2c1 0 0-1 0 0h-3l-24-8v-1c0-2-1-2-1 0l-3 1-2-2h-2l-1-1 1-5c1 0 0 0 0 0l-1 1v1h-1v1c0 2-2 3-3 3v-1h-1l-6-1-1-1v1l-3-1-2-1-1-1c0-1 0-1 0 0h-5l-28-7-4-2h-2v-2 1c0 1 0 2-1 1l-1-1-4-1-5-1-2-1c0-1 0-1 0 0h-1l-4-2c-5-1-5-1-5-3l-1 1-5-1-4-1-2-1h-1l-4-1c0-1 0-1 0 0h-1v-1c-1 1-5 0-10-1l-8-2-1-2-1-1h-1v2h-1l-5-2-5-1-2-1-2-1h-2l-1-1v-1h-8l-7-3-4-1-3-1h-1l-8-2-1-1h-3l-2-1-1-1h-3l-2-1-3-2h-4l-1-1-2-1h-5v-3l-1 2c1 1 0 1 0 0l-1-1c0 1 0 1 0 0s0-1 0 0l-1 1-2-1-1-1-1-1v1l-1 1-1-1h-1l-1-1h-1c0 1 0 1 0 0l1-1v-2c1-1 1-1 0 0v1h-1c-1 1-1 1-1-1v-2 1l-1 1v1l1 1h-1l-1-1c-4 0-5-1-5-2h-1v1l-2-1-2-1 1-1-1-2c0-1 0-1 0 0l-2 1 1 1h1l-1 1-1-1c-1 1-3 0-3-2 0 0 0-1 0 0-1 1-1 2-2 1l-1-1h-1l-1-1v-1l-1 1h-1l-1-1c0-1 0-1 0 0h-3l-1-1h-2l-2-1h-1l-1-1-2-1c0-1 0-1 0 0h-4c0 1 0 1 0 0l-1-1-2-1h-1s1 0 0 0c0 1-5-2-4-3h-3v-1h-2l-23-10v-1l-1-1c-1 1-3 0-7-2l-8-3-1-1v-1l-1 1-1-1v-2l-1 1v1l-2-1-4-2-2-1h-1l-2-1-1-1h-3l-5-4v-3l-1 1-2 1c-4-1-7-3-7-4h-1l-4-2-1-1-2-1h-1v-2l-1 1h1l-4-1-2-1-3-1-1-2c-2 0-3-1-2-2h-2l-1-1 1-4-1-2v2l-1-1c0-1 0-1 0 0 0 0 0 1 0 0l-1 1 1 1v3l-4-3h1l-1-1-3-1-1-1-2-2h-1l-1-1-2-1-1-1-1-3v-3 1l-2-1 1-1h2l1-1v1l1 1h2c0-1 0-1 0 0h1v1c-1 1-1 1 1 1l1-2v-1h1v1l-1 1 2 1 2-1v-4l1-1h1l1-1c0-2-1-4-2-3h-1l-1 3-1 3v-3c0-3 0-4-1-2v1l-1 3-1-2v-1l-3 1-1-1-1 1v-3l1-1v-1l1-1 1 1c-1 0-1 0 0 0h1c0 1 0 1 0 0l1-2v2l-1 3-1 1h1c1-2 2-2 2 0l1-1v-2l-1-4v-1h-1c0 2-1 1-1 0 0 0 0-1 0 0l1-1c1 0 1-1-1-2l-1-3-1-2v-1c0-1 0 0 0 0l1 1-1-5-1-1-1-1-1-1h-1v-2c0-1 0-1 0 0l1-1-1-1v-2l-1-1h-1v-1c0-1 0-2-1-1v-1l1-1v1l1 1h3l-1-1-3-6v-2l-1-3c0-1 0-1 0 0-1 1-1 0-1-1l-1-1-1-1-1-2v-1l-1-1-1-1v-2c-1 1-3-4-3-5v-1h-1l-1-1v-1c1-1 1-1 0 0l2 1 2 2 2 2 2 2c1 2 3 2 3 1v-1h1l-1-2-3-4-1-1-1-3-1-1h-1c0-1 0-1 0 0l1-2v-1h-2l-2-3v-1l-1 1v-2c1-2 1-3 2-1l1 2c2 0 2 1 2 2h1v3c0 1 0 1 0 0l2-1 2-2v-1l-3-4-2-2v-2c1-1 1-1 0 0l-1 1c0-1-2-2-1-3h-1 1l1 1h1l1-1 4 5 2-2 1-1 1-1c0-2 0-2 1-1l1-1 2 1 1 1v-1c0-1 0-1 0 0l-1-1-1-3v-2c0-1 0-2-1-1v-1h-2l-1-1-2-3v-4h-1c-1 1-1 1-2-1l-1-1v-1l1-2-1-2c0-2 0-2-1 1v3-3l-1-2-1-2v-1l-1-1c1-1 0-2-1-2v-1l1-1c1-2 2 2 2 4 0 1 0 1 0 0 1-2 1-2 2-1l1 1 2 1 2 1 1 1-2-5-2-4-1-1v-2l1-1v1l1 1h1l2 1v2l1 1 1-1v3c1 1 1 1 1-1v-1c0 2 2 1 2 0 0 0 0-1 0 0l-1-1-2-2-1-1v-1l-2-2-1-1-2-4-1-1c1-1 3 1 3 2l1 1h1l1 1 1 1 1 1 1 1 1 1 2 1h1l1-4v3c-1 3-1 3 2 2l1-2h-1v-1h1l3 2 1 1c0 2 0 2 1 0v-2l1-2v-1l-1 1s0 1 0 0h-1v-2l-2-1-1-1v-3l-2-1-2-3c-2-1-3-2-2-3v-3l1-2v5l1 1v-4l1 2h1v1h1l1 1 1 1h1v3h1c0-2 2-1 2 0l1 1 4 2h2l-1-1v-4l-3-3v1l1-1-2-2-3-3h1v-1h-1c-2 0-3-1-2-3s0-3-1 0l-1-2v-3c-1 0-1 0 0 0v-2l-1-1-1-1c0-1 0-1 0 0l-1 1-1 1v1-4c0-1 0-1 0 0-1 1-1 1-1-1 0-1 0-1 0 0l-2 1-2-4v-2l1-3 1-1v-1l-3-3h1c0 1 0 1 0 0l1-1 1-1h1l1 1v4l-1 4 1-1h3l1 1v1l-1-1v2h-1c-1 0-1 0 0 0v4h1v-1h2l2-2v2l1-1v4l1-2 1 3h1l1 1c0 1 0 1 0 0h1v2l1 1 1 2 1 2 2 2 1 2h2l1 1 1 1 1 1v1l2 1 1 1 1 1 1 1v2h1l1 1h1l1 1 1 1s0 1 0 0c1 0 1-1-1-4l-1-3v-1l-1 1v-1h-1v-2l-1 1h-1v-1l1-1c0-1-1-2-2-1l-1-1-1-1v-2h1l1 1h2v2l1-1v-2l-1-1-1-3-3-3-1-1-1-1c0-1 0-1 0 0l-1-1v-1c-1 1-3 0-2-1h-1l-1-3c1-1 1-1 0 0h-2c0 1 0 0 0 0l1-1-1-1c0 1 0 1 0 0h-1v-1l1-1-1 1h-1l-1-1v-2 2l-1 3 1 1c0-2 2-1 2 0v1l-1-1v2l-1 1-1-1-1-2v-3h-1l1-1 1 2c-1 1-1 1 0 0v-5l-1-1s-1 0 0 0l-1-1-1-1h-1v-1c0-1 0-1 0 0s0 1 0 0v-2c-1 1-1 0-2-1l-1-2-1-1-1-2-2-1-4-6-1-1-1-1-1-2c-1 1-1 0-1-1s-1-2-2-1v1h1l-2 1c-2-1-2-1-2-3v-2c-1 0-2 2-1 3v3l-1 1-1 2v-2h-1l1-1 1-2-1 1h-1l-1-1-1-1h1v-1h-1l1-1 1 1h1v1h1l1-2v-3l-1-2h2v-1l-1-2v-2l-1-1v-1l-1 2v4h-1s0 1 0 0l1 1h-1v-7l1-1c-1-2-1-1-2 1 0 2 0 2 0 0l-1-3-2-1c-2 0-2-1-1-2v1h1v-1l1 1h1l1 1v-7h-1v-2h1l1 1c1 0 1 0 0 0-1 1 0 2 2 2l2-1c1-1 0-1 0 0-2 0-3 0-2-3v-2h-2l1-1-1-2v-3 1h1v-2l-1-1c0-1 0-1 0 0-1 1-1 0-1-1l-1-3v-3l-1-2h-1v-4l1-1h-2c0 1 0 1 0 0v-1c0 1 0 0 0 0l1-1v-1l1-2h1l1-1c1-1 2 0 1 1h1l3 1v-1l-1-1-1-1v-1h3v-1c-2 0-2-2 0-3l1-2 1-1 1 1c0 2 0 2 1 1l1-1 1 1v2c0-2 1-2 0 0 0 3 0 3 1 1l1-2-1-1-1-1 1-2h1c0 1 0 1 0 0 0-2 1-2 2-3 2 0 2 0 1-1v-1l1-1 1-1c0-1 0-1 0 0l1-1 1-2v-1l-1-1h1c1 0 2 1 1 2l1 2 1 1 1-1c0 1 0 1 0 0l1-1v5h1v-3l1-3c0-2 0-3-1-2 0-1 0-2-1-1 0 1 0 1 0 0v-1l1-2-1-1v-2l-1-2c0-1 1-1 1 1l2 1 1 4 1-1 1-1v2c-1 1-1 1 0 0h1l-1 2v2c0 1 0 1 0 0h1v1l1-2 2 1c2 2 3 2 3 0v-1h-1v-1h-1c-1-1-1-2 1-2v1l1 1 1 1 1 1h1c0 1 0 1 0 0l1 2h2l1-1v-1l1 1v3l2-4h1v1c0 1 0 2 1 1l1 2 1 1v1l-1 1h3l1 1h3l2 2 1 1 1 1 1 1v4l1 1c0-1 0 0 0 0 0 1 0 2 1 1v1h1l2-1-1 1v1h2l1 1c-1 0 0 0 0 0l1 2c0 2 0 2 1 1v-2l2 3c1-1 2 0 3 2l2 2c0-1 0-1 0 0v1l-2 1h3c1-1 1-1 0 0v3h1v-1l1 1h-1 1l3 3c-1 0 0 0 0 0l1 1c0 1 0 1 0 0h1l-1 1v1l1 1h1l-1 3h1v-1l1-1v1c1-1 1 0 1 1v1l3 3 2 3c-1 1 0 2 1 1 0-1 0-1 0 0l1 1c-1 0 0 0 0 0 1-1 1-1 1 1l2 2h1l2 2 1 2v1l1-1c-1 1 0 1 0 0s1-1 0 0h1v1l1 2v1h1l1 1c0-1 0 0 0 0l1 1 2 1 1 2 1 1c0 1 0 1 0 0h1l1 3h2l1 2h2v1l1 2h1v1l1 1 1 1 2 1v2h4l1 1c-1 1 1 3 1 3h1s0 1 0 0l1 2 1 1 3 3c-1 0 0 0 0 0l1 1 2 2h1l1 1 1 1 1 1 1 2h1v-2h1v2h1v1c-1 1 1 2 1 1l2-1c0 1 0 0 0 0h3l1 1v2h2v-1h-1l1-1 2 1s0 1 0 0l2 1 1 1 1-1h3v-1l-1-1-2-1h-1l1-1c2-1 3 0 3 1s0 1 0 0l5-2 1-2 1-1v3c0 2 0 2 1 1l1-1 1-1 2-1h3l2 1 2-1v1l3 1h3c0-2 0-2 0 0v1l1-2 1-1 2 1 1-1 1-1h1l4 4 1-2-2-1-2-1c-1-2-3-2-3-1 0 2-1 1-1-1s-1-2-1-1h-1l-2-2-2-2c-1-2-2-2-2 0 0 0 0 1 0 0l-1-1v-1l-1-1v1l-2 1-2-1-1-1-2-1-1-2v-1h-3v-1l-1-1-1-1h-2l-1-1-1-1v-1l-2-1h-3l-1-1-1-1c-1-2-3-2-3-1 0 2 0 4 1 3 0-1 0-1 0 0v1c1-2 3-1 3 1v1l-3 1v3c1 2 0 2-1 1h-1c-1 1-3 0-3-1 1-1 0-2-1-2l-3-1-1 1h-3l-2 1-1-2 1-1-1 1v5l2 1h2v1l-1 2v-2l-1-1-1 1v1l-1 1v1l1 1 3 2 1 1h-2l-1-1c0 1 0 1 0 0l-1-1-1-1h-1v-5s0-1 0 0l-1-2c0-1 0-2-1-1v-1c0-2 0-1-1 1v2l-1-1v-1l-1-2-1-1 1-1 1-3v-1h-1l-1-1v5h-1v-3l-1-2-1-1h-1v-2h-2v-1h2v1h3v-2h-1l-2-2v-1c0-2 0-2-1-1v1l-1-1-1-2h1v-1l-3-3-1-1c0 1-1 0 0 0h-1v-1l1-1h3l1 2s0 1 0 0h4l-1-1-2-1-3-2v-1l-1-1-2-2v-1h-1v-1h-2l-1-1h3c2-1 2-1 1-2l-2-2h-2l-1-1v-1h-2c1-1 0-1-1-2-3-1-3-1-2-4v-2s0-1 0 0h-1c1-1 0-1 0 0h-2l-1-1h-1l-2-1v-1c0-1 0-1 0 0l1-1-2-2-2-2 2-1 2 1 1 1s1 0 0 0l1 1c2-1 2-1 2 1l1 1 1-1v-1 3l1-1v1h1c1-1 1-1 0 0l1-1 1-1v1l1 2 2 2h2v1l1-1v1l1-2v-2l-1-1v1l-1-1-1-2h-2l-1-1h-1l-1-1-2-1-1-1 1-1c1-1 1 0 1 1h1l1-1h1v1h2v-3c-1-2 0-2 3-2l1 2-1 1 1 1 1-1h1v-1h1c0 1 0 2 1 1v1h1v-1h1c0-2 2-2 2-1l1-1 1-1v2l-1 2v2l1-1 1-1h1l1-1v2h2c0 1 0 1 0 0h2l2 1 2 1h1v-1h2c1 1 2 0 1-1v-1l-3-2-1-2v-2 1h-2l-1-1v-1l-1-2-1-2s3 1 2 2h2c-1 1 1 2 2 2l1 2 1-2h-1v-2l1-1v1h2l1 1 2 1h2l-1-2c-2 0-5-3-4-4h-2l-2-1-1-1-1-1-1-2h1l-1-1c-3 0-3-1-2-3 0-2 0-2-1-1 0 1 0 1 0 0v-4l-1-1v-3h2c0-1 0-1 0 0v-1c0-2 0-2 2 0zm9 7s-1 0 0 0l-1-1v1l1 1 1-2-1 1zm-6-1c0 1 1 1 0 0zm826 137l1 1 1-1c0-2-1-2-2 0zm-2-1v1l1-1v-1l-1 1zM182 24l-1 1v1h1v-2c-1-1-1-1 0 0zm823 136h1v-1l-1 1zM186 26l1-1c0-1 0-1 0 0l-1 1zm14 3l1-1c0-1 0-1 0 0l-1 1zm-9-2l1-1-1 1zm824 136l1 1v-1h-1zm-9-1v-1 1zm-21-3v3l1-1-1-2s0-1 0 0zM200 33c1 1 2 0 2-2v-1l-1 1-1 2zm805 133l1-1h-1v1zM197 32v1h2l1-1-2-1-1 1zm-9-1h1v-1l-1 1zm-3-1v1l1-2-1 1zm-3 0c0 1 0 1 0 0h1v-1h-1v1zm302 49l1 1v-2l-1 1zM202 33h1v-1l-1 1zm268 45l1-1-1 1zM255 43l-1 2h1v-4 2zm-41-7l2 1 1-1h-3zm-12-2l-1 1h2l1-1h-2zm841 139l-1 1c0-2-1-1-1 1v1l-1 1v3l1-1 1-2 1-1v-1 1l1-2-1-1zm-4 2v1c0-1 1-1 0 0h1v-4l-1 3zm-45-9h1c1 1 2 0 1-1l-2 1zM198 34h1v-1l-1 1zm64 11v-1 1zm-48-7c0-1 0-2-1-1l1 1zm-14-2l1-1s0-1 0 0l-1 1zm58 10h1v-1s0-1 0 0l-1 1zm-33-6v2l1 1v-1c0-2 0-3-1-2zm-22-4h1v-1l-1 1zm774 128v1h1l-1-1zM253 45h1v-1l-1 1zm-10-2l1 2v-2h-1zm-46-6v1h1s0-1 0 0c0 0 1 0 0 0v1l1-1v-1l-1-1c1-1 0-1 0 0l-1 1zm-2-1v1h1v-2l-1 1zm5 1v1l1-1v-1l-1 1zm779 129c-1 1-1 2 1 2l2-1-3-1zM249 46v1h-1 2v-1h-1v-1 1zm208 35c1 1 1 0 1-1l-1 1zm578 96l1 1v-2l-1 1zM247 47h1l-1-1v1zm-53-9v1l1-1-1-1v1zm827 139h-1v-1c1 0 1 0 0 0l-1 1c-1 1-2 0-1-1v-1l-1 2 1 2v-1h2c-1 2 2 0 2-2 0-1-1-1-1 1zM541 98v-2 2zm104 17c0 2 0 3 1 2v-2l-1-1v1zM539 98v-1c0-1 0-1 0 0v1zm499 82l-1 2h2v-1l-1-1zm-421-69l-1-1-1 1s0 1 0 0l1 1c0 1 0 1 0 0l1 1v-1l1-1v-1l-1 1zm-33-5v-1c0-1 0-1 0 0v1zM447 83h1l-1-1v1zm-3 0c0 1 0 1 0 0zm-12-3v1l1-1-1-1v1zm206 36h1c0 1 0 1 0 0v-2l-1 2zm-42-8c0 1 0 0 0 0v-1 1zm-11-2v1s1 0 0 0v-2 1zm449 76v1h1l1 1v4l-1 3-1-1c0-2 0-2-1 0v1l-1-1c0 1 0 1 0 0h-2l-2 2v-1l1-2h-2l1-3 1-3c-1-2-2-2-2-1l-1 2-1 2h1v-1h1l-1 1v3c0 1 0 0 0 0h-1c0 2-2 2-3 1v1l-1-1h-1v1h-1v2l1-1 1 2h1c0-2 0-2 0 0v2l1-2c0-2 1-3 1-1v1h2c1-2 4-2 5-1 0 1 0 1 0 0l1-1v1l2 1 2-1 1-1v-9h-1v-1l-1-1v-1l-1 2zm-3 10s0 1 0 0v-1 1zm-403-79v1l1-1h-1zm411 71l1 1 1-1v-1h-1c0-1 0-1 0 0l-1 1zm-344-58l-2 3v2l1-1 2 1v-5c-1-2-1-1-1 0zM511 95l1 1v-1h-1zM263 55l1 1c0 1 1 1 0 0 0-2 0-2-1-1zm779 129c0 1 0 1 0 0zm-286-48l-1 1h-1l-1 1c0-1 0-1 0 0l1 2c-1 2 1 1 1-1h1v-3zm-113-18l1 2v-2h-1zm-55-7l1-1v-1l-1 2zm450 74l1-1s0-1 0 0l-1 1zm-359-60v-1s0-1 0 0v1zm-37-7v1l1-1h-1zm-5-1c0-1 0 0 0 0zm418 70l1 1v-1h-1zm-3 0v1l1-1v-1l-1 1zm-27-5v1l1-1h-1zm-369-61l1 1v-2l-1 1zm-65-9l1-1v-1l-1 2zM191 45h1l-1-1v1zm566 94c0-2 0-2 0 0zm-125-21v-1 1zm-22-4c0 1 0 1 0 0 1 0 0-1 0 0zM193 46h1l-1-1v1zm274 45v-1 1zm277 46v2l1-1-1-1zm-14-2v1l1-1c0-1 0-1 0 0h-1zm-25-4l1-1h-1v1zm-46-7v-1 1zm-10-2l1 1v-2l-1 1zM426 86h1v-1c1 0 0 0 0 0l-1 1zM195 47v1l1-1h-1zm848 143v1l-1-4v1c0 2 0 3-1 1 0 0 0-1 0 0l-2 6 1-1h3v-1c0-2 1-2 1-1v-4l-1 2zm-1 3l-1 1v-1l1-2v2zm-294-55v1l1-1h-1zm-1 1l1-1h-1v1zm-42-7h1v1l1-1-1-1-1 1zm-4-1h1v-1l-1 1zm-31-5h-1c0 2 1 2 1 0v-1 1zm-15-3v1h1s0-1 0 0l1-1h-2zm-1 0v1l1-1h-1zm-40-6h1l-1-1v1zm-84-14h1v-1l-1 1zM420 85v-1 1zm608 102l1-1c1-1 0 0 0 0l-1 1zm-295-51v1h1l-1-1zm-50-8l-1 1 1 1c2-2 1-3 0-2zM428 87v-1 1zM263 60h1-1zM66 29l1-1v-1l-1 2zm-3-2v1s0 1 0 0h-1c0 1 1 2 2 1v-1l-1-1c-1 0-1 0 0 0zm996 165v2l1-1-1-2v1zm-24-5l1 1v-1h-1zm-3 1v1l1-1c0-2 0-2-1-1v1zm-90-14c0 1 0 2 1 1v-2c0-2-1-1-1 1zm-173-30c0 1 0 1 0 0l1-1-1 1zm-122-20h2-2zm-1-1h1l-1-1v1zm-19-4v4l1-2v-1l-1-1zM194 50l1-1h-1v1zm860 141v1l1-1h-1s0-1 0 0zm-16-2c-1 0 0 0 0 0v-1 1zm-17-2l1-1s0-1 0 0l-1 1zm-86-15v1l1-1c0-1 0-1 0 0h-1zm-236-38h1v-2 1l-1 1zM444 91h1v-1l-1 1zM78 31h1-1zm668 110c0 1 0 0 0 0v-1 1zm-7-2l-1 1h1c1 0 2 0 1-1h-1c0 1 0 1 0 0zm-1 1v-1s0-1 0 0v1zm-16-2v-2 2zm-5-1l1-1-1-1v2zm-22-5v1l1-1h-1zm-20-3h-2l-1 1v2l4-3h-1zm-1 1l-1 1v-1h1zm-23-4v-2 2zm-14-4v2l1 1c0 1 0 1 0 0l-1-3zM414 86l1 1v-1h-1zm646 108h1v3h1v-2l-1-1c0-1-1-2-1 0zm-14-1v2c1 0 2-2 1-3 0-2 0-1-1 1zm-23-5c0 1 0 1 0 0v-1 1zm-91-15l1 1 1-1-1-1-1 1zm-156-26l1-1h-1v1zm-6-2l-1 1h1s0-1 0 0l1-1h-1zm-8-1c0 1 0 0 0 0v-1 1zm-5-1c0 1 0 1 0 0v-1 1zm-24-4v1h1v-2l-1 1zm-11-1h1v-1l-1 1zm-1 0v-1s0-1 0 0v1zm-25-5v1h1c1-2 0-2-1-1zm-26-3v-2 2zm-15-4v-1 1zm-15-2h1l-1-1v1zm-4-1v-1 1zm388 65v-1 1zm-11-1v1l1-1v-1l-1 1zm-327-55v1l1-1h-1zm-18-3l-1 2 1 1v-1c0-1 0-2 1-1v-1h-1c-1 0 0-1 0 0zm-4-1c1 0 0 0 0 0 0-1 0 0 0 0zm-12-1h1v-1l-1 1zm-9-1l2-1h-1l-1 1zm-52-9l1-1h-1v1zm-5-2v1l1-1h-1zM419 88v1l1-1h-1zM56 30v-2 2zm989 162h1l-1-1v1zm-277-45l1-1s0-1 0 0l-1 1zm0 0v-1c0-1 0-1 0 0v1zm-71-12c1 1 1 0 1-1h-1v1zm-86-14v-1s0-1 0 0v1zM447 93v1s1 0 0 0v-1zm-15-2c0 1 1 1 0 0v-1 1zM74 34v-1l1-1h-1v2zm984 162v-1s0-1 0 0v1zm-339-56v-1c1 1 1 0 1-1l-1 1v1zm-12-3h1l-1-1v1zm-51-9v-1 1zm-63-10l1 1v-2l-1 1zM414 89h1v-1l-1 1zM91 39l1-1 1-2c-1-1-1-1-1 1l-1 2zm-27-7h1c0-2-1-2-1 0zm876 145c0 1 0 1 0 0l1-1c-1-1-1-1-1 1zm-194-34v1l1-1h-1zm-35-5v2l1-1 1-1v-1l-2 1zm-75-12c1 1 1 0 1-1h-1v1zm-28-5h1c0 1 0 0 0 0h-1zM265 65h1v3h1l-1-1 1-1v-2l-2 1zm676 112v-1 1zm-6 0v1l1-1-1-1c0 1 0 1 0 0v-1 2zm-266-46v1c0 1 0 0 0 0l1-1h-1zm-50-7v-1c1 0 0 0 0 0v1zm417 69v2h1v-2c0 1 0 0 0 0v-1l-1 1zm-22-4l1 1v-1h-1zm-77-11l1-1s0-1 0 0l-1 1zm-5-2l-1 3c0-1 1-2 2-1v-2h-1c0 1 0 1 0 0zm-172-29c0-1-1-1 0 0zm-33-5h1v-1l-1 1zm209 36h1l-1-1v1zm-271-46h1v-1l-1 1zm-18-3v1l1-1h-1zm-20-3c0 2 0 2 1 1l1-1h1l-1-1-2 1zM167 52l1-1v-1l-1 2zM54 33l1-1c0-1 0-1 0 0l-1 1zm999 165v1h1c1 0 0-1 0 0v-2c0-1-1-1-1 1zm-36-6h1l-1-1v1zm-360-61l1 1v-1h-1zm-15-2v1l1-1v-1l-1 1zm-11-1h1l1-1h-1l-1 1zm41 6l1 1v-1h-1zm-18-1l-1 1 2-2c0-1 0-1 0 0l-1 1zm-20-5l-1 2v1l1-1 1-2c1 0 1 0 0 0h-1zM421 93l1 1v-1h-1zm-2 0l1 1v-2l-1 1zM171 54h1l1-1v1c-1 1-1 1 0 0v-1c-1-1-1 0-2 1zm-11-3c0 1 0 0 0 0v-1 1zM85 38v1l1-1h-1c-1 0 0 0 0 0zm670 113l1-2v-1l-1 3zm-40-9v1l1-1h-1zm-27-4v-1c1 0 0 0 0 0v1zm-8-1h-1c1 1 2 0 2-1s0-1 0 0l-1 1zm-18-2v2c0 1 0 1 0 0v-2l1-1c0 1 0 1 0 0l-1-1v2zM168 53h1l-1-1v1zm-7-2l1 1v-1h-1zm-3 1h1v-1l-1 1zM63 36l1 1 2-1h-3zm662 109h1c1 0 1 0 0 0l-1-1c1 0 0 0 0 0v1zM79 38l1 1h1l-1-1h-1zm-27-4v1l1-1h-1zm885 147h1l-1-1v1zm-6 0v1l1-1v-1c0 1 0 1 0 0s0-1 0 0l-1 1zm-226-39h1l-1-1v1zm-6-1c0 1 0 0 0 0v-1 1zm-80-12l1-1h-1v1zM259 69v1l-1 1v1l1-1v-1h1v1l1-2h-2zm-3 0v-1c0-1 0-1 0 0v1zm823 135l1 4 1 1h1l2-1c1-1-2-2-3-2h-1 1v-1l-2-1zm-53-9v1h1l-1-1zm-15-2s0 1 0 0c0 0 0-1 0 0zm-76-11v-2 2zm-199-34l1-1-1 1zm-13-3v1l1-1h-1zm-3 0h1l-1-1v1zm-81-13l2 1-1-2-1 1zm-27-5v1l1-1h-1zm440 74h1v-1l-1 1zm-123-21c0-1 0-1 0 0zm-262-43h1-1zm-51-8v-1s0-1 0 0v1zM428 98h1c1 1 2 0 1-1l-2 1zm502 84v-1s0-1 0 0v1zm-4 0v-2 2zm-4-2c0 1 0 1 0 0v2l1-2v-1l-1 1zm-226-37v-1h-1l1 1zm-23-4v-2 2zM165 56v-1c0-1 0-1 0 0v1zM49 37v1l1-1c0-1 0-2-1-1v1zm1050 172v1h1l-1-1zm-4 0l-1 1-1 1 3-1v1l1-3-2 1zm-8-1l-1 1h-1v1l1 1v1l3-2h1l2-1-1-1h-4zM255 71h1v-1l-1 1zm-77-13l1 1v1c0 1 0 1 0 0v-2h-1zM57 39l1-1h-1v1zm1015 166v1h1v-1h-1zm-393-65v1l1-1h-1zm-13-2h-1v1l-1 2 1-2 1-1zM266 72l1 1v-1h-1zM162 55s-1 0 0 0zM50 39l1-1c0-1 0-2-1-1v2zm1025 168c0 1 0 1 0 0zm-157-26c-1 0 0 0 0 0h1l-1-1v1zm-237-39l1-1h-1v1zm-22-3l-1 2h1c2-2 2-3 1-3v1h-1v-2 2zm-13-4v1l1-1h-1zm-218-35v-1 1zM172 59h1l1 1h2l-1-1c0-1 0-1 0 0h-1v-1h-1l-1 1zm-3-1c0 1 0 0 0 0v-1 1zM51 38v1l1-1h-1zm1025 169l1 1v-1h-1zm-393-64l1 1v-2c-1-1-1-1-1 1zm-27-5v1l1-1v-1l-1 1zm-47-7h1v-2l-1 2zm538 88v1h1l-1-1zm-85-13l1 1-1-2v1zm-147-24l1 1v-1h-1zm-266-45v1l1-1h-1zm-46-7v-1 1zm-2 1l1-1v-1l-1 2zM260 74v1h1v-1h-1zm-84-14v1l1-1-1-1v1zm969 160v1c1 1 2 0 1-1h-1zm-4-1s0 1 0 0zm-119-19h1l-1-1v1zm-351-58h1v-1l-1 1zm-2 0l1-1-1 1zm-29-6v1l1-1h-1zM272 76v1l1-1h-1zm871 144v-1 1zm-486-80l1 1v-2l-1 1zm-47-8h1c1 0 1 0 0 0h-1zM268 78c1 1 1 1 1-1l-1-1v2zm-11-3c1-2 0-2 0 0zm373 61l-1 1 1 2 1-2v-1h-1zM63 43v-1 1zm-7-1l1 1v-1h-1zm-1 1l1-1h-1v1zm1033 170c0 1 0 1 0 0v-1 1zm-180-30v1l1-1s0-1 0 0h-1zM271 78l1 1v-2l-1 1zM65 44c0 1 0 0 0 0v-1 1zm568 95c0 1 1 1 1-1 0-1 0-1 0 0h-1v-1 2zm-6-1l1-1c0-1 0-1 0 0l-1 1zM259 76v1l1-1h-1zM44 41v1l-1 3-1 1-1 1h2c0-2 1-2 1-1v-5s0-1 0 0zm605 101v-2 2zM163 61v2h3l-1-1-1-1h-1zm991 165l1-1h-1v1zM50 43l1 1v-1h-1zm1006 166l1 1v-1h-1zm-445-73v1l1-1h-1zm-7-1c0 2 0 1 0 0v-1 1zM253 78v1h-1 2v-2l-1 1zM41 42l1 1v-1h-1zm-2 0v1l1-1h-1zm9 2s0 1 0 0zm1099 181h1-1zm-93-14v-1 1zm-465-77h1l-1-1v1zM61 48l1-1h-1v1zm-4-1h2v-1l-2 1zm1103 182h1c0 1 0 0 0 0v-1l-1 1zm-8-2h1l-1-1v1zm-540-87c1 1 1 1 1-1v-1l-1 2zM52 47c1 1 1 0 1-1l-1 1zm-11-2v-1 1zm986 163h1l1-1h-1l-1 1zm-407-66v-3 3zM152 64h1v-1l-1 1zM46 46v1h3l-1-1h-1v-1l-1 1zm565 95v-2 2zm-6-1c0 3 1 2 1-1v-1l-1 2zm-8-2h1v-1c0-1-1-1-1 1zM102 56h1v-1l-1 1zm-52-9c0 1 1 2 2 1l-1-1h-1zm836 139h1v-1l-1 1zm-292-47c0 1 0 1 0 0l1-2-1 2zm-163-28v-1c0-1 0-1 0 0v1zm-95-16v-1 1zm-10-3c0 1 0 1 0 0 1 0 0 0 0 0-1 0-1 0 0 0zM105 57h1l-1-1v1zm213 36v-1s0-1 0 0v1zM104 57v2l1-1v-2l-1 1zm-32-5v1l1-1h-1zm1086 180v-2 2zm-134-23v1h1v-1h-1zm-423-70h1v-1l-1 1zm-8-1l1-1h-1v1zm-167-27v-1 1zm-80-13v-1s0-1 0 0v1zm-92-16h1l-1-1v1zM101 58c0 1 0 0 0 0v-1 1zm-49-8l1-1c0-1 0-1 0 0l-1 1zm970 159l2 2-1-2h-1zm-393-64c0 1 0 1 0 0v-2 2zM312 93v1l1-2c-1-1-1-1-1 1zm-61-10h1l1-1-2 1zM49 49v-1 1zm1001 166c0-1-1 0 0 0 0 1 0 1 0 0l1-1h-1v1zM402 109v-2 2zm-1-1v-1 1zM55 51l1 1v-2l-1 1zm1104 182v-1 1zm-139-23v-1 1zM61 53h1v-1l-1 1zm729 120v-1 1zm-69-11h1l1 1c0 1 0 1 0 0l-1-1h-1zm-70-11c0 1 0 0 0 0v-2 2zm-241-40h1c0-1 0-2-1-1v1zm-5-1v-1 1zm467 77v1l1-1h-1zm-456-75c0 1 0 0 0 0v-1 1zm-42-6l1-1c0-1 0-1 0 0l-1 1zM271 88l-1 2c-1 1-1 1 0 0l1-3v1zm776 128h1-1zm-297-48c-1 0 0 0 0 0h1l-1-1v1zm-22-3l1-1h-1v1zm-9-3v4h2c1 1 2 0 1-1l-1-1h-1v-2h-1zm-58-9l1 1v-1h-1zM54 53h1l1 1c-1 0 0 0 0 0l-1-2-1 1zm-11-1c0 1 0 0 0 0v-1 1zm-8-2v1l-1-1-1-1-1 2c1 0 0 0 0 0v1c0 2 0 2 1 1h1l1-1v-3 1zm1124 188c0 1 0 2 1 1v-3c0-1 0-1 0 0l-1 2zm-138-25v1l2 1h1l-1-1-1-1v-1l-1 1zm-220-34l1 1 1-2c0-2 0-2-1-1l-1 2zm-34-7v-1h-1l2 2h1v-2l-1 1h-1zm-49-9v1l1-1-1-1v1zm-21-3l1-1h-1v1zm-10-1v1l1-1-1-2v2zm-6-1h1v-1l-1 1zm-282-48c0-1-1-1 0 0zM36 52l1 2 1-1-1-1c0-1 0-1 0 0l1-1h-1l-1 1zm1003 164l1 1h-1l-3 3 3-1 1-1v-2h-1zm-5-1l-2 1c-1 0-2 0-1-1l-1-1c-1 0-2 0-1 2v1l2 1v1h-2v-3h-2c0 2 0 2-2 1l-1-1-1 1h-1v-1h-3l-2-1h-2c0 1 0 1 0 0l-1-1h-2c-1 2-3 2-2 1h-1l-4 1v1l1 1 1 2c0 1 2 1 2-1l1 2c0 1 1 2 2 1h2c2 0 3 0 2-1h4v-1c0-2 0-2 0 0l1 1c1-1 1 0 1 1h-1l-1 1h4v-2l1 1s0 1 0 0h1l2-1 1-1h2l1 1h2v-1c0 1 1 1 1-1v-4h-1zm-13 2v1-1c0-1 0-1 0 0zm-3 0v1c1 0 2 0 1 1s-2 0-2-2l1-1v1zm8 3v1h-1c0 1 0 0 0 0-1-2-1-2-2-1h-1s0-1 0 0v-1c1-1 4-1 4 1zm-9-3l-2 2 1-2h1zm-2 2l-2 2 1-2 1-1v1zm-4-1l-1 1v-2l1 1zm-269-49c0 1 1 2 1 0v-2l-1 2zm-16-3l1 1v-2l-1 1zm-16-3l1-1-1 1zm-47-8v1h1v-1h-1zm-279-46v-1s0-1 0 0v1zm-30-5h1v-1l-1 1zm-83-14v1h1v-1h-1zm-15-3l1 1 1 1c-1 1-1 1 0 0s1-2-1-2h-1zM109 64v-1s0-1 0 0v1zm1048 172v1h-2v1l2 1c1 1 1 0 2-2l-1-1h-1zm-121-20v1h1v-1h-1zm-291-46v1l1-1c-1-2-1-2-1 0zm-21-4h1l-1-1v1zm-25-4h1v-1c1 0 0 0 0 0l-1 1zm-7-2v1l1-1v-1l-1 1zm-8-1h1l-1-1v1zM46 54h1v-1l-1 1zm690 116l-1 2 3-3c0-1 0-2-1 0l-1 1zm-7-3c0-1 0-1 0 0zm-32-5v-1 1zM167 74h1l-1-1v1zM41 54h1v-1l-1 1zm984 162h1l-1-1v1zm-194-32c0 1 0 0 0 0v-1 1zm-18-3s0 1 0 0h1v-1l-1 1zm-64-10l1-1-1 1zm-106-17v-1 1zm-219-38v1l1-1h-1zM262 90l1 1v-1h-1zm-81-13v-1 1zm981 163l1-1c0-1 0-1 0 0l-1 1zm-1 0h1l-1-2v2zm-528-87v-1 1zm-251-41h1l1-1h-1l-1 1zM266 91v1l1-1h-1zm539 90l1 1 1-1h-2zm-20-3v1l1-1v-1l-1 1zm-19-3h1v-1l-1 1zM59 59v-1c0-1 0-1 0 0v1zm-11-3l1 1v-1h-1zm-2 0l1 1v-2l-1 1zm1114 184h1l-1-1v1zm-378-62v1l1-1h-1zm-21-3h1v-1l-1 1zm-3-1h1v-1l-1 1zm-67-10v-1c0-1 0-1 0 0v1zm-19-4l1 1-1-2v1zm-291-48v2l1-3-1 1zM177 79l1-1h-1v1zm978 161v2c0 2 0 2 1 0 0-1 0-2 1-1v1l-1 1h1v2c0 1 0 1 0 0l1-1h1v-1l1 1v1c0 1 0 0 0 0h1l1-2h-1c0 1-1 1-1-1l-1-1c0 1-1 1-2-1h-1l-1-1v1zM354 108h1v-1l-1 1zM110 67v1h1v-1h-1zm618 103l1 1v-1c1 0 1 0 0 0h-1zm-18-2l1 1v-1l-1-1v1zm-350-59c0-1 0-1 0 0zM31 55v1c1 0 2 0 1-1h-1zm626 105v-1s0-1 0 0v1zm346 56v2h-1l-1-1 1 1c1 2 3 0 2-2h-1zM388 116v-1 1zM259 94h1l-1-1v1zM116 70v1h1v-1h-1zm-64-9v-1c0-1 0-1 0 0v1zm-8-2l1 1v-2l-1 1zm1002 166l1 1 1-2h-1l-1 1zm-367-60c1 1 1 0 1-1s0-1 0 0l-1 1zM181 82h1v-1l-1 1zm981 162l1 1v-2l-1 1zm-577-95c0 2 0 2 0 0v-1 1zm-199-33v-1 1zm739 122v1l1-1h-1zm-448-72c0 1 0 1 0 0l1-2-1 2zM263 96h1-1zm-81-13h1v-1l-1 1zM34 59v2h2l1 1-1-2-2-1zm681 113h1v-1l-1 1zm-366-61h1l-1-1v1zM121 74l1-1-1 1zm588 98v1h1v-2l-1 1zm-99-17h1v-1l-1 1zm-267-43c0 1 0 1 0 0zm657 107l1 1v-1h-1zM264 98c1 0 0 0 0 0zM125 75v2l1-1-1-1zm1042 173v-1 1zm-12-2v-1 1zm-152-25l-1 1-2-1v1c-1 1 0 1 1 1l5-1-2-2-1 1zm-5 0v1h-1c0 2 0 2 1 1l1-2c0-2-1-2-1 0zm-327-54v-1 1zm-8-2h1v-1l-1 1zm-398-65v1l1-2-1-1v2zM123 76l1 1v-2l-1 1zm1039 173h1l1 1v-3l-1 1-1 1zm17 1v1l1-1h-1zm-508-82h1v-1l-1 1zm-330-55c0 2 1 2 1 1v-1c0 1-1 0 0 0l-1-1v1zm2 3v2h1v-4c1-1 1-1 0 0l-1 2zM114 76h1l-1-1v1zm1051 175h1v-2l-1 2zm-379-64v1h1l1-1h-2zm-9-1v1l1-2-1 1zm-97-15v-1s0-1 0 0v1zm-11-1l1-1c0-1 0-1 0 0l-1 1zM220 94l1 1v-1h-1zM111 76c-1-1-1-1 0 0zm673 112h1v-1l-1 1zm-516-86v1l1-1h-1zm-35-6h1-1zm-62-9v-1 1zm832 137v2l1-1-1-1zM345 117v1h1v1l1 1h4c0-1-1-2-2-1v-2c-1 2-2 1-2 0v-1l-1-1-1 2zM40 65v2c0 1-1 2-1 0h-1l1 2v2l1-1v-2l1-3h-1zm1126 187c0 1 0 0 0 0v-1 1zm-389-64h1v-1l-1 1zm-438-73v1l1-1h-1zM48 67v1h1l-1-1zm-5 0v1l1-1-1-1v1zm-6-2l1 1v-1h-1zm-3 0c0 1 0 0 0 0l-1-1 1 1zm2 2v-1 1zm1131 186v1l1-1v-1l-1 1zm-6 0h1v-1l-1 1zM358 120h-2v1s-1 0 0 0l-1-2c0-1 0-1 0 0-1 1-2 0-2-1v1l-2 1c0 2 1 2 2 1h1c1 2 2 3 3 1h2c0-1 0-1 0 0 1 2 2 2 3 0v1h2l1-1-3-1-2-2c-1-1-2 0-2 1zM177 90l1-1h-1v1zm-63-10h2l-1-1-1 1zm508 85v-1 1zm-216-36v-1c1-1 0-1 0 0v1zm-143-24c0 2 0 2 1 1v-2l-1 1zm-91-15h1v-1l-1 1zm993 164v1l1-1v-1l-1 1zM341 119v-1c0-1 0-1 0 0v1zm-62-11l1 1c1-1 0-2-1-2v1zm-14-2l1 2h1v-2l-1-1-1 1zm-97-16l1 1v-1h-1zm-48-6v-2 2zm1046 172v1l1-1v-1l-1 1zm-19-4h1c0-1 0-1 0 0h-1zM111 83v-2 2zm-1 0v-2 2zM48 71v1l1-1v-1l-1 1zm321 54v1c-1-1-1 1-1 2 1 1 2 0 2-2v-2l-1 1zm-2 0v-1c0-1 0-1 0 0v1zM136 86v2h1v-2h-1zM42 72v-2 2zm1126 184v1l1-1h-1zM270 110v-2 2zM168 93c0 1 0 2 1 1l1-2c-1-1-1 0-2 1zm203 34c-1 1 0 2 1 1v-2c0-1-1-1-1 1zm-103-17v1l1-1v-1l-1 1zm-83-14h1v-1l-1 1zm-5 0l1-1-1 1zM38 72c0 1 0 1 0 0v-1 1zm236 40v-1s0-1 0 0v1zm893 147c-1 0-1 1 0 0 0-1 0-1 0 0zM366 127h2l-1-1-1 1zm-155-25v-1 1zm-71-12c-1 0 0 0 0 0h1l-1-1v1zm1031 172v-2 2zm-8-3h2-2zM282 113l2 2 1-1-3-1zm-7 0c0 1 0 0 0 0v-1 1zM174 96v1l1-1-1-1v1zm-39-6c0 1 0 0 0 0v-1 1zm505 84h1v-1l-1 1zM40 75v1h1v-1h-1zm1133 188v1l1 1v-3l-1 1zM181 99v1l1-1-1-1v1zm-6 0v2l1 2 1 1h-2c0 1 1 3 2 2v-6l1 1 1 1c1 1 1 0 0 0 0-2-2-3-2-3v1h-1c0-2 0-3-1-2v1zm13 3l-1 1 1-2v1zm24 3v-1 1zm-39-4l1 1v-1l-1-2v2zm-1-1v-2 2zM43 79c1 1 1 0 1-1h-1v1zm7 2l1 1v-2l-1 1zm303 51v1l1-1h-1zm-78-12v1l1-1v-1l-1 1zM49 83h1v-1l-1 1zm-5-1h1v-1l-1 1zm1128 186v1l1-1v-1l-1 1zM364 135h1l-1-1v1zm-4-1c0-1 0-1 0 0zm-2 0h1-1zm-2-1l1 1v-1h-1zm-63-10v4h1c1 1 1 0 0 0v-1l-1-3zm-105-16c0 1 0 0 0 0v-1 1zm-6-1c0 1 0 2 1 1l-1-2v1zm180 30h1v-1l-1 1zm-71-11l1 1v-2h-1v1zM35 83v-1 1zm328 54h1c1 1 2 0 1-1l-2 1zm-5-1h1l-1-1v1zm-12-2h1v-1l-1 1zm-132-21v-1s0-1 0 0v1zm153 26v-2 2zm-70-12v-1 1zm-80-13h2v-1l-2 1zm-1-1v1l1-1v-1l-1 1zM39 85h1v-1l-1 1zm1134 187l-1 1v1l1 2 1-3v-2l-1-1v2zM368 138l1 1v-1h-1zm-34-3c0 1 0 2 1 1v-1c-1-2-1-2-1 0zm-29-6v1l1-1h-1zm865 144l1 1 1-1h-2zM298 129v1h-1l1 1s1 0 0 0l1-1-1-2v1zm-2-1v2h1v-2h-1zm45 8v1l1-1h-1zm-24-4l2 3v1c0 1 0 1 0 0h1v-1l-2-1 1-1-1-1h-1zm-16-2v1l1-1h-1zm-1 0l-1 1v1h-1l1 1h1v1l1-1v1l1 1-1-3-1-2v-1 1zm36 7l1-1h-1v1zm-33-6l1 1h1l1 1c0-1 0 0 0 0v2l1 2 3-1v1l2 1h2v-3l1 2c0 2 0 2 1 1v-3l-1-1h-3c-1 1-1 1-2-1l-2-1-2-1-2-1-1 1zm6 4s0 1 0 0v-1 1zm-163-30v1l1 1 1-1v-1h-2zm186 32h1l-1-1v1zm-176-28h1l-1-1v1zM38 90l1 2 1-1h-1v-2l-1 1zm279 46v1l1-1-1-1v1zm-12-1c0 1 0 1 0 0v-2 2zm81 13v1l1-1v-1l-1 1zm-83-14v1l1-1h-1zm86 15h1v-1l-1 1zm-57-9l1 1-1-2v1zm-3 3v-1h1v-1h-1v2zM41 94h1l-1-1v1zm200 33v1l1-1h-1zm-2 1v1l1-2c-1-1-1-1-1 1zm86 15v-1l-1-1v1l2 2v-2c0-1 0-1 0 0l-1 1zm-83-15c0 2 3 5 4 5h2c0 1 0 1 0 0 1-2 0-3-3-3l-2-1v-1h-1zm-105-16v-1 1zm1029 169l1 1v-1h-1zM339 146v1l1-1-1-1v1zm-64-10v-1s0-1 0 0v1zm-43-8l1 1v-1h-1zm951 159c0 1 0 0 0 0v-1 1zM324 145l1 1v-2l-1 1zm-95-15h1v-1l-1 1zm109 19v-1c1-1 1-1 0 0v1zm-81-14l-1 1v1h3l-1-1-1-1v-1 1zm-4-1l1 1v-1h-1zm-1 1v-1c0-1 0-1 0 0v1zM39 101l1 1v-1h-1zm1143 188v1h1l-1-1zM443 169v1l1-1h-1zm-179-29h2l-1-1c-1-1-1-1-1 1zM40 103v1l1-1v-1l-1 1zm1125 185c1 0 0 0 0 0-1 0-1 0 0 0zM269 142h-3l4 1-1-2v1zm905 149s0 1 0 0l1 1v-1h-1zM275 143v1h1l-1-1zm902 151l1-1c0-1 0-1 0 0l-1 1zM188 131v-1 1zm19 6l1 1c1-1 2-1 1-2l-2 1zm80 14v1l1 2v-2l1-1h-2c-1 0 0 0 0 0zm-7-2l1 2 1-2h-2zm-70-12l1 1-1-1zm74 14v1h3l-3-1c-1 0 0 0 0 0zm-29-5h1l-1-1v1zM73 119v-1 1zm1102 183h1v-1l-1 1zm4 2v-2 2zm-2 1h1v-2h-1v2zm-6 1v-1c0-1 0-1 0 0v1zM115 139h1v-1l-1 1zm-23-3h1c1 1 1 0 0 0l-1-1v1zm1072 179h1v-2l-1 1v1zM92 137v-1 1zm3 3l1-1h-1v1zm-47-6c-1 0-1 0 0 0zm8 13c0 2 0 4 1 1l1-1v-2l-2 2zm1096 183l-1 1 1 1 1-2v-1l-1 1zM63 152l1-1-1 1zm-3-3l1 2v-2h-1zm21 8c0 1 0 1 0 0v-1 1zm-3-2v-1 1zm-9-1v1l1-1-1-1v1zm15 5h1l-1-1v1zm-19 2l1-1v-1l-1 2zm37 6h1-1zm-9-1v1l1-1h-1zm1048 173l1 1 1-1-1-1-1 1zM90 167h1l-1-1v1zm1058 175v-2 2zM91 169l1-2-1 1v1zm1052 172h1v-1l-1 1zM95 170l1 2v-3s0-1 0 0l-1 1zm-8-1v3l1 1v-5h1c0-1-1-1-2 1zm-33-5l1-1v-1l-1 2zm43 6l1 1v-1h-1zm1 2l-1 1 1 1v-2zm-9 0v1h1l1 1 1 1c0-1 0 0 0 0 0 1 0 1 0 0l1-2-2-1v-1h-2v1zm-18-3h1l-1-1v1zm-8 0v-2 2zm38 7c0 2 1 1 1 0l-1-1v1zm-7-1v1h-1v1l2 1v1l-1-5v1zm-36-4h1l-1-2v2zm39 6v1l1-1c0-1 0-1 0 0h-1zm1038 172l1 1-1-2v1zM98 179v1l1-1v-1l-1 1zm11 3c0 1 0 1 0 0zm-39-6h1v-1l-1 1zm-7-1v-1 1zm35 7h-1 1zm1028 169v-1 1zM62 177v1l1-1h-1zm1076 177c1 0 0-1 0 0zm-2 0l1 1v-1h-1zM61 180v-2 2zm-6-2l-2 1v2l1-1v-1 3c0 1 0 1 0 0l1-1 1-1v-2c1-1 1-1 0 0h-1zm2 1v1c0 2 0 2 1 0v-2l-1 1zm1066 175v1l1-1h-1zM38 178l1-1s0-1 0 0l-1 1zm2 1v-1s0-1 0 0v1zm1089 178v1l1-1h-1zM43 181v-2 2zm64 10h1l-1-1v1zm-58-8h1l-1-1v1zm11 1v1h1v-1h-1zm-13 1h1v-2l-1 2zm-13-2c0-1-1-1 0 0zm1087 178v1c0 1 0 1 0 0v-1l1-1-1 1zM90 192l1 1v-1h-1zm-43-5l1 1v-2l-1 1zm-8 5h1l1-1-1-1-1 2zm3 1h1l-1-1v1zm9 3h1l-1-1v1zm1060 173h-3l1 1 1 1 1-1 1-1h-1zm-11-1c0-1-1-1 0 0zM48 197h1c0-1 0-2-1-1v1zm1068 175h1l-1-1v1zm-18-3h1l-1-1v1zM55 201h1l-1-1v1zm-3 1h1l-1-1v1zm1057 184c0 3 0 3 1 1v-2l-1 1zm4 0l1 1h1l-1-1h-1zM36 217v-2 2zm8 1h1v-1l-1 1zm-2 0h1v-1l-1 1zm-1 2l1 1v-2l-1 1zm1066 178l-1 1v1l1 1c0 1 0 1 0 0l1-2v-1l-1-1 1-1h-1v2zM39 227c0 1 0 1 0 0h2v-1c0-2-1-2-1-1l-1 2zm3 6v-1 1zm-3 0h1v-1l-1 1zm1051 173v1l1-1h-1zM41 235h1l-1-1v1zm3 6c1-1 1-1 0 0zm-10 0l1-1h-1v1zm1053 176l1 1v-3l-1 2zm2 0v2l2-1v-2l-2 1zm-5 0l-1 1-1 2v1c2 1 3 0 3-1h1l1 1c1-1-1-4-2-4h-1zm8 4v-1s0-1 0 0v1zm-12-2h1v-1l-1 1zm-2 2l1 1-1-2v1zm12 2l-1 2c-1 1-1 1 0 0l1-1v1l1-1v-2l-1 1zm-18-1l-1 2h4l2-1v-2l-5 1zm2 3l1 1c0 1 0 0 0 0 1-1 0-1-1-1zm-13 2l1 1v-1h-1zm-7 9h-1v2-1l2-2-1 1zm-10 0v-1c1 0 0-1 0 0v1zm6 2l1-1-1 1zm-6 2l2-2h-1l-1 2zm5-1l1 1v-1h-1zm1 2l1-1-1 1zm-7 0v-1c0-1 0-1 0 0v1zm2 2h-1l1 1 1-2h-1v1zm-5-2h1l-1-1v1zm9 3v1l1-1h-1zm-7 0l1 1-1-2v1zM94 289l1 1-1-1zm952 160v-1c0-1 0-1 0 0v1zm-6-2l-1 5v1l1-2 1-2h1l-1-1-1-1c0 1 0 1 0 0zm-5 2v-1s0-1 0 0v1zm0 0l1 2v-2h-1zm1 4v-1s0-1 0 0v1zm1 0v-1 1zM58 292l1-1h-1v1zm978 164h-1l1 2v2l1 2v-7h-1v1zm-2 4v1l1 1v1c0 1 0 1 0 0l1-2c0-2-1-2-2-3v2zm3 1l1-1s0-1 0 0l-1 1zM60 300h-2v5h1v1h1l-1-2h1c1 1 2 0 1-1v-2h-1v-1l1-1-1 1zm2 6v2h-1c0 1 0 1 0 0l-1 1 1 1 1 1 1-1v4h1l-1-1c0-1 0-1 0 0l1-1h1v1l1 2h-1l-1 1v3l1 1c0-1 0-1 0 0s0 1 0 0h1l1-1v1l1 2v-3l1-2v5h1v-6h1c1 1 2 0 1-2l-1-1-1-1h-1l-1-1-1-1v-1h1v-2l-2-1-1-1-2-1-1 2zm4 11l-1-1h1v1zm958 147s0-1 0 0zm2 2v1l1-2c-1-1-1-1-1 1zm-1 0c0 1 0 1 0 0v-1 1zM57 307v2l2-1c1-1-1-2-1-1l-1-1v-1 2zm-6-1l1 1v-2c-1-1-1 0-1 1zm972 160h1v-1l-1 1zM69 310l2 2v-3c-1-1-2 0-2 1zm-21-2l1-1h-1v1zm968 159l-1 2v1c0 1 0 1 0 0l1-2 1-2-1 1zM50 308h1l-1-1v1zm968 161v1l1-2c-1-1-1-1-1 1zM53 309c-1 0 0 0 0 0v-1 1zm-2 2v-1c0-1 0-1 0 0v1zm4 1l1 2 1-1-1-1h-1v-1 1zm15 5l1 2v-3l-1 1zm-8-2l1 1v-1h-1zm953 159h1v-1l-1 1zM75 320l1 1v-1c0-1 0-2-1-1v1zm-1 1v-1s0-1 0 0v1zm940 155l1 1 1 1v-1l-2-2v1zM102 334v-1s0-1 0 0v1zm912 151l-1 3 1-1-1 2v3l1-3 1-4v-1l-1 1zM105 336l1-1h-1v1zm-9-1h1l-1-1v1zm38 9l1-1-1 1zm-19-2v1l1-1h-1zm905 156c0 1 0 2 1 1v-1c0-2 0-1-1 0zM145 354h1l-1-1v1zm871 145l1-1s0-1 0 0l-1 1zm2 1l1 1v-1h-1zM357 390l1 1v-1h-1zm656 110v1h1v-1c0-2-1-2-1 0zM393 397h1v-1l-1 1zm-80-12v-1 1zm-176-30v1l1-1h-1zm17 4l1 1-1-1zm176 30v-1c0-1 0-1 0 0v1zm-178-29h1l1-1-2 1zm-4-1l1 1v-1h-1zm5 2v1h1v-1h-1zm864 144s0 1 0 0v-2 2zM170 366v1l1-2c0-1 0-1 0 0l-1 1zm128 23h1l-1-1v1zm-86-14c1 1 1 0 1-1h-1v1zm-9-1v1l1-1-1-1v1zm8 4l1-1c0-1 0-1 0 0l-1 1zm-20-4v-1 1zm-9-1v1h1v-2l-1 1zm-2-1s0 1 0 0h1l-1-1v1zm22 5c1 1 1 0 1-1l-1 1zm-7-1v-1s0-1 0 0v1zm55 10c0 1 0 0 0 0v-1 1zm136 25l1-1v-1l-1 2zm65 10h1v-1l-1 1zm-45-7l1 1v-1l-1-1v1zm-170-28c0 1 0 0 0 0v-1 1zm-6-1v1l1-1h-1zm161 28h1v-2l-1 2zm-142-23h1l1-2-2 2zm-18-5v1l1-1h-1zm-6 0v-1 1zm-9-1c0 1 0 0 0 0h1c1 2 1 1 1 0l-1-1-1 1zm799 131l1 1v-1h-1zM404 415h1-1zm-172-28l1 1 1-1-1-1-1 1zm10 3h1v-1l-1 1zm-6-1l1 1v-2l-1 1zm-10 0l1-1h1c0 1 0 1 0 0s-1-2-2-1v2zm-7-3h1l-1-1v1zm43 9c0 1 0 0 0 0v-1 1zm337 57c-1 2 0 2 0 0v-1 1zm-359-61v1l1-1h-1zm88 15s-1 0 0 0zm-72-10v1l1-1-1-1v1zm767 128l1-1v-1l-1 2zM253 397h1v-2 2c0 1 0 1 0 0v-2l-1 2zm-6-2v1l1-1h-1zm19 5v1l1-1v-1l-1 1zm30 5h1l-1-1v1zm-3 1l1-1h-1v1zm-7-1c0 1 0 1 0 0v-1 1zm-7-3l-1 1h2l-1-1zm319 55h1-1zm-223-37v1l1-1-1-2v2zm-80-13l1-1-1 1zm721 120l1 1v-1h-1zM395 424l1 1v-1h-1zm27 8h1v-2l-1 2zm5 0l1 1v-2l-1 1zm-93-14v-1 1zm260 43c0 1 0 1 0 0h1-1zm-182-30v1l1-1v-1l-1 1zm13 3h1v-1l-1 1zm180 32v-1c0-1 0-1 0 0v1zm-228-37v1l1-2c0-1-1-1-1 1zm-2-1v-1 1zm49 8l-1 2v-2l-1 1v1l-1 1v1l1 1c1 1 1 1 1-1s1-2 1-1 0 1 0 0v-4 1zm79 16l1-1-1-2v3zm-77-14l-1 2h2c0 1 0 1 0 0v-2c-1 0-1 0 0 0v-2l-1 2zm-14-2h1v-1l-1 1zm610 101l1 1c0 1 0 1 0 0v-2l-1 1zm-593-97v-2 2zm-11-2c1 1 1 0 1-1 0 0 0-1 0 0l-1 1zm-11-3v1l1-1-1-1v1zm34 7c0 1 0 1 0 0v-1 1zm-23-4c0 1 0 0 0 0v-1 1zm-10-1v-1c1-1 0-1 0 0v1zm5 1l1-1-1 1zm611 102l1-1-1 1zM410 438v-1 1zm-12-1h1v-1l-1 1zm627 105v-1 1zm-3-1l-1 1v1l1-1v-1zm-410-66v-1 1zm-59-9h1c0 1 0 0 0 0v-1l-1 1zm-90-15v2c1 1 2 0 2-1l-2-1zm41 8c0 1 0 0 0 0v-1 1zm67 12c0-1 0 0 0 0l1-1c0-1 0-1 0 0l-1 1zm451 77h2v-4 1l-2 3zm-424-73v1c1 0 1 0 0 0v-1zm14 4v2l1-2-1-1v1zm409 68v-1c1 0 1-1 0 0v1zm-1 1v-2 2zm-59-11h1v-1l-1 1zm-2 0v2l1 1s0 1 0 0l2 1h1v-4 2l-1-1-1 1v-1l-1-2-1 1zm-348-57v1l1-1h-1s0-1 0 0zm406 68c-1 0 0 0 0 0h1l-1-1v1zm-3 0v-1 1zm-47-8v-1 1zm-18-3v-1 1zm-9-1l1 1v-1l-1-1s0-1 0 0v1zm1 1l1-1s0-1 0 0l-1 1zm14 3h1v-1l-1 1zm-350-58l1 1v-1h-1zm4 2l1 1v-1c-1-1-1-2-1 0zm-52-9v1c0-1 0 0 0 0 0 1 0 1 0 0v-1c0-1 0-1 0 0zm398 67v-1c1 0 0 0 0 0v1zm-12-3l1 2 1-1c-1-1-1-2-2-1zm10 3h1v-1l-1 1zm-13-2h1v-1l-1 1zm74 12l1 1v-1h-1zm-86-12c0-2-2 0-3 0v1h1l1-1h1zm-323-55v1h1v-1h-1zm2 1v-1 1zm406 67l1 2v-1l-1-1zm-410-66l3 1 1-1h-4zm412 68l-1 1-1 1 3-2-1-1v1zm-41-7l1 1v-1h-1zm-42-7v1l1-1h-1zm84 16l1-1v-1l-1 2zm-99-16v-1c1-1 0-1 0 0v1zm58 9c0-1 0-1 0 0zm-43-7v1l1-1v-1l-1 1zm-2 1v-1l1-1v1l-1 1zm-324-53l1 1-1-1v-1c0-1 0-1 0 0v1zm304 49s-1 0 0 0zm-295-48c-1 0 1 0 0 0zm-15-1h1l-1-1v1zm307 50l1 1v-1h-1zm71 12h-2l-1 1h-1l1 2 3-1v-2zm-76-10v1l1-1v-2l-1 2zm-3-2v1l1-1h-1zm-3 0l1 1v-1h-1zm126 22c0 1 0 0 0 0v-1 1zm-63-11v-1 1zm-403-66l1 1c0 1 0 1 0 0l-1-1zm465 78c0 1 0 1 0 0zm-459-76v-1 1zm-10-1h1v-1l-1 1zm11 2v-1 1zm416 69l-1 1 1-1zm-3 1v1l1-1 1-2h-1c1-1 0-1 0 0l-1 2zm-103-18h1v-1l-1 1zm-286-46l1-1h-1v1zm-14-4l1 1v-1h-1zm448 75c1 1 1 0 1-1h-1v1zm-47-7h1l1-1h-1l-1 1zm-109-19v1l1-1h-1zm-280-44c1 1 2 0 2-1h-1l-1 1zm429 69h-1 1zm-426-68v-2 2zm166 28v-1 1zm-192-32c-1 1 1 3 2 2h1l1-1-2-2-2 1zm-6-2v1h1v-1h-1zm456 76l-1 1v1l1-2c0-1 0-1 0 0zm-169-28c0 2 1 2 1 1l-1-1zm-87-15v2h1l-1-2zm-172-26v-1c0-1 0-1 0 0v1zm-37-6v-2 2zm-9-3l1 1c1-1 0-2-1-1zm484 81v-1c0-1 0-1 0 0v1zm-16-3c0 1 0 0 0 0 1-1 0 0 0 0zm-160-26l1 2v-3l-1 1zm-278-46l-1 1h-1l1 1v-1h4v-1h-3zm113 20h-1l-1 1c0 2 1 2 1 0l1-1zm-138-24v3l1-1v-2h-1zm297 49v1l1-1h-1zm-299-49v1h1v-1h-1zm473 80v-2 2zm-169-28l1-1c0-1 0-1 0 0l-1 1zm-7-1v-2 2zm-80-15v3l1-2-1-1zm-177-28s0 1 0 0zm-7-1h1l-1-1v1zm-17-1v2l2-4-2 2zm455 73h1v-1l-1 1zm-20-3c0 1 0 0 0 0v-1 1zm-316-51h1v-1l-1 1zm-128-21c0 1 1 2 1 0l-1-2v2zm8 1v1l1-1-1-1v1zm-5-1v1l1-1h-1zm-12-2l1 1c0 1 0 1 0 0 0-2 0-2-1-1zm471 79h1v-2h-1v2zm-21-5h1-1zm-160-24l1-2-1 1v1zm-265-45h1v-1l-1 1zm-12 0v-2 2zm-10-4v1l1-1v-1l-1 1zm289 49s0 1 0 0 0-1 0 0zm-90-15v1l-1 1 1 1v-1l1-1v-1l-1-1v1zm-12-2v1c-1 0-1 0 0 0h1l-1-1zm10 2v1l1-1v-1l-1 1zm-13-1h2l-1-1s-1 0 0 0l-1-1v2zm259 42l-1 1v1h-1l1 1 1-1h1v-3l-1 1zm-176-28l1 1-1-1v-2 2zm-78-13h1v-1l-1 1zm-12-3l1 1v-1h-1zm-4 0h-1v1h1l1-1c0-1 0-1 0 0h-1zm-42-7v-1 1zm-9-2s0-1 0 0zm-86-14v1l1-1h-1zm-39-5l1-1h-1v1zm-5-1l1-1-1 1zm-57-8v2c1-1 1-1 1 1l1 2h1v-1c0 1 0 1 0 0v-2l-1-1 1-1v-1l1-1-1 1-1 1-1-1v-1l-1 2zm-1-2v-1 1zm199 33l1 1 1-1h-2zm-88-14c0 1 0 1 0 0l-1-1 1 1zm-88-14v-1s0-1 0 0v1zm245 40h1v-1l-1 1zm-34-6l1 1v-1h-1zm-28-4l1 1-1-2v1zm-97-16h1v-1l-1 1zm-34-5l1 1c0 1 1 1 1-1v-1l-2 1zm430 70v1l1-1-1-1v1zm-208-34v1l1-1h-1zm-46-7h-1l1 1c2 0 2 0 1-1 0-1 0-1 0 0h-1zm-42-5h2v-2l-2 2zm-153-27l1 1v-1l-1-1v1zm-29-5v1l1-1-1-1v1zm-3 0h1l-1-1v1zm183 30l1 2v-1c0-2 0-2-1-1zm-39-6c0 1 0 1 0 0zm-120-19v-1c0-1 0-1 0 0v1zm-40-8l1 1v-1h-1zm526 88v-1s0-1 0 0v1zm-7-2l1 1 1 3-1-4h-1zm-350-57v1l1-1-1-1v1zm-66-11l-1 1 2-1c0-1 0-1 0 0h-1zm-77-11l1-1v-1l-1 2zm-14-4h1l-1-1v1zm489 81h1v-1 1h-1zm-4 0l1-1c0-1 0-1 0 0l-1 1zm-187-31v-1 1zm-87-15v1l1-1h-1zm-67-11c0-1 0-1 0 0zm-3 0c1 0 1 0 0 0v1l-2 1v1c-1 1 0 1 0 0 0 0 1 0 0 0l1 1h2l-1-2 1-1v-1h-1zm-148-24c-1 0-1 0 0 0v-1 1zm220 35l1 1v-1h-1zm-16-1l1 1v-2l-1 1zm-125-20c1 1 1 1 1-1l-1-1v2zm-46-9l1 1c0 1 0 0 0 0l-1-1zm-38-5v1l1-1v-1l-1 1zm89 14l1 1v-1h-1zm-15-2h1s0-1 0 0h-1zm-12-2h1c0 1 0 0 0 0s0-1 0 0h-1zm457 76v-1 1zm-344-57l-1 1-1 1h1l1-1v-2 1zm-46-6v1h1v-2c1-1 1-1 0 0l-1 1zm-96-16v-1c1-1 1-1 0 0v1zm-18-2v1l1-2v-1l-1 2zm-12-3v-1s0-1 0 0v1zm505 82l-1 2h1v-2zm-463-75v-1 1zm461 76v1l1-1-1-1v1zm-9-2v1h1v-1h-1zm-319-52h1v-1l-1 1zm-95-15h1v-1l-1 1zm-67-9l1-1 1-2-2 3zm5-1v2l1-2h-1zm119 20c0 1 0 1 0 0v-1 1zm-27-5c0-1 0-1 0 0zm-57-8l1-1c0-1 0-1 0 0l-1 1zm81 14l1 1v-2l-1 1zm-45-8v-1 1zm-40-7v1l1-1h-1zm457 78h1v-1l-1 1zm-23-4v1l1-1h-1zm18 4l1 1v-2l-1 1zm-6 0h2l-1-1c0 1 0 0 0 0s0-1 0 0l-1 1zm-5-1h1v-1l-1 1zm-4-1v1l1-1-1-1v1zm19 4v-1 1zm-17-3v2l1-2-1-1v1zm12 3v-1c0-1 0-1 0 0v1zm-6 0l1-1-1 1zm-9 0v-1c0-1 0-1 0 0v1zm36-429v1l-1-2 1 1zm-8-2v1h1l-1 1h-2l-2-1 1-1h2l1-1v1zM305 39c1 1 0 2-1 0v-1l1 1zM176 18h-1v-1l1 1zm108 19l1 1v3h2l2 1h1l-1 2v2l-2 2h-3l-1-2h-1v2h-2v-4l1-1-1 1-1-1h-1l-1 1-1 2v1c1-1 2-1 3 1l1 1h3l3 1 1 2v2l1-1v-2h3l1 1v1c1 1 2 0 1-1v-1h1v1l2-1 1-1c1 0 0 0 0 0h-1v-2l2-1v6c1 1 0 2-1 2l-1 1c0 1 0 1 0 0h2l1-1v5l-1 2-1-1c0-1 0 0 0 0v4h1l1-1-2 2-1-1v-2l-1-1v-1l1-1v-1l1-1h-1l-1 1v-3l-1 1c1 0 0 1 0 0l-3 3h1l1 1-1 1 1 1h-1v1l1 1h-1l-1 1c0 1 0 1 0 0v-3c1-1 1-1 0 0h-1v-1 1l-1 2v-3l1-3-1-2c0-2-1-2-2-2l-2-2-1-1s-1 0 0 0l-1 1-1-1h-2l-2-1-3 1v1c0-2 0-2-1-1v-5l1-1v-2l1-1h1l-1-1v-3h-1v1c-1 1-1 1-2-1v-3 1h2c-1 0-1 0 0 0h1l2-1 2-1 4 2zm-5-1v-1 1zm2 1l-1 2 1-1h1l1-1h-2zm-3 2l1 1 1-1c0-2 0-2-1-1l-1 1zm-4 0h1l-1-1v1zm8 1l1 1v-1h-1zm1 3h-1l1 2 1-1 1-1h-2zm-2 3l1-1-1 1zm10 8l1 1-1-1zm-14-19l-1-1c-1 0 0 0 0 0l1 1zm716 119h-1l1-1v1zM295 38v5c0 1-1 1-1-1l-1-2-1-1 1-1h2zM194 23h-1v-2l1 2zm-19-4v2l-1-1c1-1 0-1 0 0h-1c0-2 1-2 2-1zm94 16l1 2-1-1-1-1v-1l1 1zm-2-1c-1 0-1 0 0 0 0 0 1 0 0 0zm-72-10h-1v-1h1v1zm939 155l-1 1v-1l1-1v1zM58 2l-1 1V1l1 1zm213 36s0 1 0 0v-1 1zm-97-16h-1c-1-1 0-1 0 0v-1l1 1zm133 23v3l1 3 1 3v1l-1 1v-1l-2-2-2-2h-1l2-1 1-1v-2l-1-2h1v-1l1-1v2zM177 23v1l-1 1v-2h1zM77 7v1l-1-1V6l1 1zm965 160l-1 1v-1h1zm-9-2v2l-1-1c0-1 0-2 1-1zm6 2l-1 1c0 1 0 1 0 0l1-1c0-1 0 0 0 0zM294 44v1l-1-1h1zM53 6v2c-1 0-1 0 0 0v2h-1V6l1-1v1zm274 45c-1 0-2 0-1-1h1v1zm707 117v1l-1-1h1zm-8-1c0 2-2 2-2 1v-1h2c0-1 0-1 0 0zM297 46h-1 1zm-2 1c0 1 0 2-1 1v-1c0-2 0-2 1 0zm-2-1l-1 1h1v1c-1 2-1 1-1-1l1-2v1zm734 123c0 2 0 3-1 2l1-4v2zm-3-2l-1 1v-1h1zM300 49c0 2 0 2-1 0l1-1v1zm752 123v1h2v1c0 2 2 3 3 3v3c0 1 0 1 0 0l-1-2h-2 1l-1-1h-1v1h-2c0 1 0 0 0 0v-5l1-1zM245 39h-1 1zm792 131l-1 1c0 1 0 1 0 0v-1h1zm-4 0l1 1c0-1 0 0 0 0l-1 1h-1v-1l1-1zm-5-1c0-1 0-1 0 0zM291 47l-1 1 1-1zm757 126v2-2c0-1 0-1 0 0zM238 39l-1 1c-1-1 0-2 1-1zm-6 0l-1 1-1 1v-2l1-1 1 1zm828 138l1 1v2l-1-1-1-2v-2l1 2zm-31-6v-1 1zm21 5l-1 1 1-2v1zm-103-16v3l-1-2c1-2 1-2 0 0-1 3-1 3-1 0v-2 1s0 1 0 0h1l1-2v2zM271 47v2l-1-1v-2l1 1zm778 130l-1 1 1-2v1zm-110-19v1l-1 1-1-1 1-1h1zm-11-2l-1 1v-1h1zM324 56l-1 2-1-1 1-1h1zm-50-7h-1v-1l1 1zM56 14v1h-1l-1-1 1-1c0-2 1-1 1 1zm896 147l-1 1 1-2v1zm196 32l-1 1 1-1zM231 42l-1 1v-1h1zm913 151l-1 1h-1l1-1h1zm-31-4l1 2-1-1s-1 0 0 0l-1 1v-2h1zm-169-28v1-1s0-1 0 0zm-4 0l-1 2v-2h1zm-9-2v1l-1 1-1 1 2-3c1 0 0 0 0 0zm22 4l-1 4-2-3h2l1-1zm-3 1h-1l1-2v2zm-18-4v2-2zm-311-52c1 1 0 1-1 1l1-1s0-1 0 0zM314 58h-1l-1-1h1l1 1zM68 17l-1 1v-1h1zm1063 176h-1 1s0-1 0 0zm-175-29v1l-1-1h1zm-100-17h-1 1zm-26-4h-1v-1l1 1zm318 54l-1-1 1 1zm-39-7l-1 1 1-1 1-1-1 1zm-181-29c0 2 0 3-1 2l-1-1v-2l2 1zm-102-18l1 1v2c-1-1-2 1-1 2h1c2-1 0 5-2 6l-1 1 1-1v-1h-1l-1 2v2l2 1c1 1 1 1 1-1v-1l1 1h1l-1-2v-2c0-2 1-2 2 0v2l-1 1c0 2 0 4 1 3l2 1v1l-1-1h-4l-11-2v-4l-2 1v-2c0-1 0-2 1-1v-4c0-2 0-2 1-1v4c-1 2-1 2 1 3l1-1h1v1c0 2 1 3 2 1l1-2 1-2c1-5 1-5 2-4 1 2 1 2 1 0l-1-2 2-3v1zm-4 10v2c0 1 0 1 0 0-1-2-1-1-1 0v2l1-1 1-3h-1zm-2 5v-2 2zm-177-45h-1v-1l1 1zm-31-5c0 2-1 2-1 1v-1h1zm440 73l-1 2v-2h1zm-205-34l-1 2h-1v3l-1 3h-1l-2 1v-2c2 0 3-3 2-5l-1 2 2-3c1 1 2 0 2-1h1zm-5-1v1-1c0-1 0-1 0 0zm-29-5h-1v-1l1 1zm-7-1l-1 1v-1h1zM423 78v1l-1-1 1-1v1zM67 19l-1 1v-2l1 1zm-9-1l-1 1v3h-2l1-1 1-1-1-1h-1 1l1-1h1zm744 122v-1 1zm256 43v2c1 0 1 0 0 0s-2-1-1-2h1zm-3 0v1l-1-1h1zm-248-41h1c1 0 2 0 1 1l-2 2-1 2-1-1c-1-2 0-3 1-2l1 1-1-3v-1l1 1zm-18-4v3c-1 1-1 0-1-1v-2h1zM318 61l-1 1v-1s0-1 0 0h1zm-39-6c0-1 0-1 0 0zm558 92l-1 1c0 1 0 1 0 0l1-1c1-1 0-1 0 0zm-19-4v2s0 1 0 0v-2zm-24-4h-1 1zm-2 0v1l-1-1h1zm-15-2h-1v-1l1 1zm-110-18h-1l1-1v1zm-12-2s1 0 0 0zm485 81c1 0 0 1 0 0h-1 1zm-76-13v2-2zm-173-15h18l1 3-1 2v-2h-2v-1l1-2c0-2-1 0-1 1h1l-1 1c-2 1-2 1-1 2v1l-1 1c-1 2-2 2-3 2l-1 1-3-1h-1l1-3c0-1 0-1 0 0v1c2 0 2 0 2-2v-3l-1-1-1 1h1v2h-1v-2h-2l-1 1v-1c1-2-2-3-2-2l-1 1-1 1v-1zm15 0h-1v1l-1 1-1 1v-2h-1l-1 2 1 1c0-1 1 0 0 0v1l-1 1h2c0-1 0-1 0 0 0 2 1 0 2-2l1-3v-1zm-54-19v-2 2zm-12-3l-1 1-1-1h2c0-1 0-1 0 0zm-5-1c1 1 0 1-1 1v-1h1zm-13-2h-1l1-1v1zm-21-3l-1 3-1 1v-1l1-2 1-1c0-1 0-1 0 0zm-59-10l-1 1 1 1-1 1-1-2 1-1h1zm-59-9c0 1 0 2-1 1v-1l1-1v1zm-7-1v-1 1zm266 45l-1 1 1-1v-1 1zm-2-1l-1 1v-1h1zm-9-1v1-1c1-2 0-1 0 0zm-80-14h-2l1-2 1 2zm-58-10h2v1l1 2v1l-1 1h1c0-1 0 0 0 0l1 2v1c0 3 0 3 0 0l1-2v-3c1-2 1-2 1 0v5l1 3c0-1 0 0 0 0-1 1 0 1 1 1l-1-4v-1l1-2v1h3c1 0 1 1-1 2h-1l1 2c1 1 1 1 2-2l1-2c0 1 2 0 2-2l1-1v4h1l1 1v3l1-6 1-2v2l-2 10-1 1-1-1v-2h-1v1h-3v1c0 1 0 1 0 0l-3 2c1 1 0 1-1 1s-2 0-1-1c0-2-1-2-2-1 0 1 0 1 0 0v-1c-1 2-2 2-1 0l-1 1-1 1v-3 1h-2v-2l-1 1v-1h-1v3h-1v-1l-1 1h-1l1-1h-1l-2 1h-1v-1l1-1v-1h-1v1h-2v1h-1v1-3l-1-1v3c0-1 0 0 0 0h-2c0 1 0 1 0 0l1-3 1-4h1l1-1v-2h-1v-1c-1-1-1-1-1 1h-1v-1l1-3 1-2v3c-1 1-1 1 0 0h1c-1 2 1 3 2 2v-1h1l1 1h1v-2l1-1h1l1 1 2 1v-3c0-1 0 0 0 0zm0 5l1 2 1-1-1-1v-2l-1 2zm-2-1v-1c1 0 1 0 0 0v1zm-2-1l-1 2h2c0 1 0 1 0 0v-3l-1 1zm19 7h1v-2l-1 2zm-3 0v1l1-1c0-2 0-3-1 0zm4 1l1 1v-1h-1zm-11 0v-3 3zm-14-4l1-1c1 0 0 0 0 0l-1 1zm8 1v2h1l1-2h-2zm9 5c0 3 0 3 1 0v-2l-1 2zm-3-1h1v-1l-1 1zm4 2l1 1v-2l-1 1zm-5-1v1l1-1v-1l-1 1zm-3-1h1v-1l-1 1zm6 2s0 1 0 0v-1 1zm-147-37s1 0 0 0v1-2 1zM280 57h-1l1-1v1zM76 23l-1 1v-1h1zm1024 170l-1 1v-1h1zm-22-3h1l1 1c1 0 1 0 0 0l-1 1h-1s0-1 0 0v-2c0-2 0-2 0 0zm-150-25l-1 3v1h-1v-1l1-1v-1l1-2v1zm-180-31v1l-1-1h1zm373 62l-1 1v-1h1zm-31-4h-1l1-1v1zm-29-5l1 2 1 1h-2l-1-1v-2c-1 0-1 0 0 0v1l-2-2 3 1zm-111-18c1 1 0 2-1 2v-3l1 1zm-163-28l-1 1h-1v-1l1-1 1 1zm-7-1h1v1l-1-1v-1 1zm291 49c0-1 0 0 0 0zm-124-20v4l1 1h-1l-1 1v-7l1 1zm-129-23l-1 3h-1l1-2c0 1 0 0 0 0l1-1zm-6 1h-1v-2l1 2zm-8-3l-1 2-1-1 1-1c0 1 0 1 0 0h1zm-38-5c-1 2-1 3-2 2v-1c1-3 2-3 2-1zM289 60l-1 1 1-1c1 0 0 0 0 0zm-5 0h-1v-1l1 1zM49 21h-2s-1 0 0 0h2zm1070 176h-1 1zm-43-6h-1l-1 1v-2c1-1 2 0 2 1zm-3-1c-1 2 0 3 1 4s1 1-1 1l-1-2v-1l-1 1v1-2l1-2h1c1-1 1-1 0 0zm-157-20l1-1v1h-1zm-95-22l-1 1v-1l1-1v1zm-24-4v1c0 1 0 1 0 0v-1zm-79-13l-1 1v-1l1-1v1zm-5-1v2h-1l-1-2h2zM303 63v1-1zM59 23l-1 2c-1 1-1 1-1-1l1-1h1zm1070 177v1h-1v-1h1c1-1 0-1 0 0zm-287-47h-2l1-1 1 1zm-6-1l1 3c0 2-1 2-2 2 0-1 0 0 0 0v1-5l1-2v1zm-69-12v3l-1-2c0-2 1-3 1-1zm-52-8l-1 1v-2c1-1 1-1 1 1zm383 63l-1 1v-1h1zm-242-39l1 1-1-1zm-21-3h-1v-1h1v1zM414 83l-1 1 1-2v1zm-2-1c1 0 1 0 0 0zm-1 0l-1 1v-1h1zM287 62v-1 1zm569 95v3l-1-1v-3l1 1zm-24-5c1 1-1 5-2 5l1-2v-2 1l1-1v-1zM49 24c0-2 0-2 0 0zm1029 170v3l-1-3v-2l1 2zm-233-39l1 2-1 2v-4c1 0 1 0 0 0zM51 24v1l-1-1h1zm1049 173l-1 1v-1h1zm-20-3v1l-1-1h1zm-4-1v1l-1-1h1zm-227-37l1 2 1 1h-1c0-1 0-1 0 0l-1-1v-2zm-9-1l-1 1 1-1s0-1 0 0zm-2 0v1-2 1zm-5-2v4-4zm270 46h-1v-1l1 1zm-190-29h2c0 1 0 2-1 1l-1-1zM53 26l-1 1v2c0 1-1 1 0 0v-4l1 1zm1104 182l-1 1v-1h1zm-28-5l-1 1v-1h1zm-207-34l1 1v1c0 1-1 1-2-1 0-1 0-1 0 0h-1l2-1zM288 65h-1l-1-1h1l1 1zm868 143l-1 1h-1l1-1h1zm-308-50h-1v-1l1 1zM306 68v1l-1-1h1zm818 136v2c-1 2-1 2-1-1 0-2 1-3 1-1zM293 67v1s0 1 0 0l-1-1-1 1c0-1 1-2 2-1zM154 44h-1v-1l1 1zm912 151l1 1h-1v1l-2 1-1-1h2v-3l1 1zM303 70l1 2-1 1 2-1 1-1-1 1v1h1c1-2 4 0 3 1l-1 1-1-2v1h-1l-1 1v1l-1 1c0 1 0 1 0 0v-2c-1 1-1 0-1-1v-3h-1v2l1 2h-1l-1-1-1-1v-2l1-1 1-1 1 1zm-2 2v2h1l-1-2c0-1 0-1 0 0zm-15-5l-1 1v-2l1 1zM157 45s0 1 0 0v1h-1l-1-1 1-1 1 1zM96 35l-1 1v-1h1zm1064 176h-1l1-1v1zm-88-15l1 1h-1l-1 1v1c-1-2 0-3 1-3zm-218-35l-1 2v-1c1 0 0 0 0 0h-1c0-2 1-2 2-1zm-14-2h-1l1-1v1zM296 68v2h-1l1 1v1l-1-1v-2l1-1zm4 2l-1 1v-2l1 1zm-11-2l3 1c0-1 0 0 0 0 0 2 1 2 1 1l1 1v1h-1l-1-1-2-1h-1v-2l-1 1-1 1c-1-1-2-1 0-1v-2l2 1zm870 145v1l-1 1 1 1c0-1 0 0 0 0h-1v-2c0-3 0-3 1-1zm-81-15h-1 1zm-149-24c1 1 0 2-1 2l-1 1v-2l2-1zm139 24s0 1 0 0v-1 1zm-149-24v-1 1zm238 39v5l-1-1c0-2 0-2-1 1v-5 1l1-1s1 0 0 0l1-1v1zm-231-38h-1l1-1v1zm-1 0l-1 1v-2l1 1zm-11-2l-1 1-1-1h2c0-1 0-1 0 0zm-100-17c1 1 0 3-1 3v-3h1zm102 19c0 1 0 1 0 0v-1 1zm-22-4l-1-1h1v1zm-56-10l-1 1-1-2h1l1 1zm-4-1l-1 1c0 1 0 1 0 0v-1h1zM311 74h1v1l-1 1c0 1 0 1 0 0l-1-1v-1h1zm-12-1h-1v-1h1v1zm752 124v-1 1zm-239-39v1l-1-1 1-1v1zm-6 0c1 1 0 1 0 0v-1 1zM313 76s0 1 0 0v-1 1zm-32-6v4-1h-2v-1l-1-1c0-2 1-2 1 0h1l1-1zM149 48l1 1-3-1h2zm918 153l-1 1v-1c1-2 1-2 1 0zm-153-25l-1 5-1 1h-1c0-1 0-2 1-1v-2h-1l-1 1v-1l1-2h1v-2h1v1c0-2 1-2 1 0zm-2 2h1l-1-1v1zm0-3h-1v-1l1 1zm-103-17v1l-1-1 1-1v1zM317 77h-1l1-1v1zm-1 0l-1 1-1-1v-1c1-1 2 0 2 1zM157 51v-1 1zm-24-4v1h-2l-1 1 1-2h2zM48 33v1l-1-1h1zm1016 167v1h-1l1-1zm-16-2h1l1 1v2h-1l-1-2-1-2 1 1zm-151-25h-1v-1l1 1zm-18-3l-1 1v-2l1 1zM318 77c1 1 0 2-1 2v-1l1-1zm558 93v1h-1l1-1zm-71-12l-1 1v-1h1zM287 73l1 1c1 0 2 0 1 1 0 2 0 1 1 0l1-1 1 1h1l1 1h1l1 1 1 1v1c0-2 1-2 1-1v2l2 1c2 0 2 1 1 1l-1 1h-1l-1-1-2-1h-2c0-1 0-1 0 0l-1-1-1-1h-2v-1h-1l-1-1h-1l-1 1 1-1-1-1-1-2v-1c0 1 0 1 0 0v-1l1 2v-1h1zm5 4l1 1h1c1 1 1 1 0 0 0-1-1-2-2-1zm868 141h-1v-1l1 1zm-265-44v2l1 3h-1l-1-2 1-4v1zm-9-1l-1 1v-1s0-1 0 0h-1 2zM319 79l-1 1v-1h1s0-1 0 0zm-12-2l-1 1v-1l1-1v1zM141 49v1h-1l1-1zm765 127v2-2zm-26-4s0 1 0 0v1h-1v-1h1zM310 78v1h-1l1-1zM44 34v1l-1 3v-4h1zm846 140v3h-1v-1l1-1v-1c1 0 0 0 0 0zm-6-1l-1 3v-2c1-1 1-1 0 0h-1l2-1zM322 80l-1 2 1 2-1-1c0-1 0-1 0 0l-1 1h-1l-1-1v-1h1l1 1v-2h1v-1h1zm-6 0h-1v1h-1v-1c0-1 0-1 0 0l1-1 1 1zm-3-1l-1 1v-1h1zm724 121l-1 1 1-1 1-1-1 1zm-150-23v2l-1-2c0-2 0-2 0 0l-1 2v-4h-1c1-1 2 0 3 2zm-15-4h-1l1-1v1zM317 81l-1 1v-1l1-1v1zm106 18h-1l1-1v1zm740 122v1l-1-1h1zm-2 0h-1 1zm-256-42h-1 1zm155 26l1 1-2-1s0-1 0 0h1zm-168-27v1h-1v-2l1 1zM300 80l1 1-1-1c0-1 0-1 0 0zm876 145h1-2 1zm-142-23h-1s0-1 0 0l1-1v1zm-140-23h-1c-1 1-1 1 0 0h1zM326 85c0 1 0 1 0 0h1v1l-3 1v-2h2c0-1 0-1 0 0zm-20-4l1 1-1 4v-5zm872 144l-1 2v-1l1-1zM282 79v1l-1-1 1-1v1zm890 147h-1v-1l1 1zm-10-2l-1 1 1-2v1zm-109-18h-1v-1l1 1zM340 88v1l-1-1h1zm-61-10l-1 1v-1s0-1 0 0h1zm881 146v1c-1 1-1 1 0 0v-1zm-121-20h-1 1zm-133-22c0 1 0 2-1 1v-1h1zm-2 0v-1 1zm-33-6l-1 3-1-1 2-2zm-461-75c0 2 0 2-1 0l1-1v1zM285 79v2h2c0-1 0-1 0 0 0 2-1 2-2 1l-1-3h1zm750 127l1 2 1 2h-1l-1-1h-1l1-1v-4 2zm-162-29v1h-1l1-1zM290 82v2h-2l-1-1 1-2c0-1 1-1 2 1zm879 145h-1v-1l1 1zm-121-20h-1 1c0-1 0-1 0 0zm-156-25h-1v-1l1 1zm-23-4h-1l1-1v1zm-7-2v2l-1-1v-1h1zm303 51l-1-1h1v1zm-270-45v1h-1l1-1zm-20-3l-1 1-1 1v-1l2-2v1zm-9-1v1l-1-2 1 1zm-223-38l-1 2-1-1s0-1 0 0l1-1h1zM305 85v1l-1-1h-1 2zm-2 0h-2l1-1c0 1 0 1 0 0l1 1zm744 123h-1l1-1v1zm-165-27h-1v-1l1 1zm-3 0v-1 1zm-7-2v1l-1-1h1zm-1 0v1-1s0-1 0 0zM299 84l-1 1v-1h1zm-34-5v-1 1zm625 104l-1 1v-1l1-1v1zm-6-1c1 0 0 0 0 0h-1 1zm-15-3v1l-1-1h1zM292 85v1l1-1c0-1 0-1 0 0l1 1v-2l1 1v3c0 1-1 1 0 0v-1h-3l-1-1v-1l1-1v-1 2zm877 144v1l-1-1 1-1v1zm-127-21h-1s0-1 0 0h1zm-3 0c-1 2-1 2-1 0l1-1v1zm-200-33v1h-1l1-1zm-5-1v1l-1-1h1zm2 1h-1v-1l1 1zm205 34v1l-1-1h1zM339 93v1l-1-1h1zm-42-6h1v3l-1-1v-1l-1-1h1zm-11-2h-1v-1l1 1zM36 44v1l-1-1h1zm1132 187c0 1-1 2-1 0v-1l1 1zM304 89v1l-1-1c0-2 1-2 1 0zm-4-1h1l2 2h1l2 1h1l1 1c0 1 0 1 0 0l-1 1h-2c0-1 0-1 0 0h-1l-1-1h-4v-5l1 1zm1 4v1l1-1-1-1v1zm864 140v2l-1 1v-3c1-1 2-2 1 0zM33 45l-1 1v-1h1zm1131 187h-1v-1l1 1zm-135-22l-1 1 1-1c0-1 0-1 0 0zM297 89v1l-1-1 1-1v1zm-28-5l-1 1v-1h1c1 0 1 0 0 0zm769 128v1l-1-1 1-1v1zm-346-57v1l-1-1h1zm-11-2l-1 1 1-1zM149 66l-1 1v-2l1 1zm716 119h-1l1-1v1zm-68-12h-1l1-1v1zm-153-26v1l-1-1h1zM277 87v1l1 1 1 2v1c-1 2 1 1 1 0l1-1v2c0-1 0-1 0 0 1 2 1 2 2-1v-1l1 1 1 1v1l1-1c0-1 0-1 0 0l1 1h2v1h1c0-1 0-1 0 0l1 1h2l1 1 1 1c0-1 0-1 0 0h1l6 3h1l1 1h2l1 1 2 1h1l1 1 1 1h1l2 1 3 2c0 1 2 2 3 1v3c1 1 1 1 0 0l-1-2h-1l-2 1-5-3h-1c1 1 0 1 0 0v-1h-1c0-1 0-1 0 0h-2v-1h-2l-1-1-2-1-1 1h-1l1 1v1l-2-2-1-1h-2c0 1 0 1 0 0l2 3v2h-2l-1-1h-3l1-1v-1h-4v-2l-1-1h-1c0 1 0 1 0 0l-1 1h-1v-3l-1-1v1c0 1 0 2-1 1h-2l1-1c0-2 0-2-1-1h-1v-1l1-1-1 1-1-1h-1l1 2h-1l-1-1v-1h-1v-1l-1-1 1 1 1-2v-1 1h-1v-4l-1-1-1-1h-1v-2c0-2 0-2 1-1v2l1-2h1zm-1 2h1v-1l-1 1zm4 6h-1v2c1 1 1 2 2 1h1l1 1-1-1-1-1v-2l-1 1v1-3 1zm12 4v1l1-1v-1l-1 1zm-2 0v-1 1zm-3 0v-1c-1-1-1-1-1 1v2h1l1 1h1l1 1h1v1l1-1 1 2 1-1 1 1v1h1c0-1 0-1 0 0l1 2 1-1-1-1v-1l-1-2-1-1c0-1 0-1 0 0l-1-1h-2l-2-1v1h-1l-1-1c0 1 0 0 0 0v-1c-1 1-1 1 0 0l-1-1v1zm-2 0c0 1 0 0 0 0v-1 1zm-2 0h1l-1-1v1zm24 5l1 1-1-1zm-24-2v1l1-1h-1zm31 6l-1 1h1l1-2-1 1zm-23-2v1l1-1c1 0 0 0 0 0h-1zM128 63l-1 1v-1h1zm1063 175v4l-1-2-1-1 1-1h1zm-417-67v1l1-1-1 2h-3v-1l1-2v1l2-1v1zm-62-11c1 1 0 1 0 0v-1 1zM308 94c0 2 0 2-1 1v-1l1-1v1zm880 145v1h-1v-2l1 1zm-16-3v-1 1zm-334-55c0-1 1 0 0 0zm-168-27h-1l1-1v1zM295 91c0-1 0-1 0 0zm876 145l-1 1-1-1 1-1 1 1zm-465-76h-1l1-1v1zM279 90l-1 1 1-2v1zm907 154v2l-1 1c-2 0-2-2 0-3h1zM153 79v2-2c0-1 0-1 0 0zm123 20v1l-1-1h1zm-6 0v1h-1l1-1zM157 82l-1 1-1-1h2zm116 20l-2 1h-1v-1h1l1-1 1 1zM158 83l2 1v1l-3-2h1zm1033 171l-1 1v-2l1 1zM16 61h-1v-1l1 1zm307 52v1l-1-1h1zm-21-3l1 1 1 1v1h3v-1h1v1l-1 1h-2l-1-1h-2l-2-4 2 1zm27 5c-1 2-2 2-2 1l-1-1h3v-1 1zm-23-4c1 1 0 2-1 1l1-2v1zM17 64l-1 2v-2l1-1v1zm-2-1l-1 1v-1h1zm1157 191v1l-1-1 1-1v1zM324 114v1l-1-1h1zm-38-6l-1 1-1-1 1-1 1 1zm40 7l-1 1v-1h1zM19 65l-1 4-1-3 1-1c0-1 0 0 0 0h1c1-1 1-1 0 0zm1167 193l-1 1h-1c0-2 1-3 2-1zm-2-1l-1 1v-1h1zM310 114l1 1 1 1c2-1 5-1 5 1h-2l-2 1-1-1-2-1c0-2-1-2-1 0l-1-1h-1l1-1h1l1-1v1zm3 3h1l-1-1v1zm-24-7l1 1h1v2c-1 1-2 0-2-1v-1 1h-3v-2h1c0 1 0 1 0 0h2zm901 149v1l-1-1h1zm-9 0v1l-2 1v-2l1-1h2l-1 1zM319 116l-1 1v-1h1zm-26-4l1 1c1-1 1-1 0 0s-1 1-2-1h1zm890 148l-1 2v1l-1 1c-1 1-1 0-1-1l3-4v1zM330 120h1v1l-1 1h-1v-1h-1v-2h1l1 1zm-32-5h-1l-1-1h1l1 1zm20 3h-1 1zm871 144l-1 1s-1 0 0 0l1-1zM320 119l-1 1v-2l1 1zm-4-1l-1 1v-1h1zm-14-2s0 1 0 0l1 1v1h1l-2 1-1 1v-1l-1-1-1-2h3zm19 4c1 0 1 1 0 0s0-1 0 0zM164 95c0 1 0 2-1 1v-2l1 1zm168 28l-1 2v-1h-1v-1c0-2 1-2 2 0zM162 95c-1 2-2 2-1 0l1-1v1zm177 29l-1 1v-2l1 1zm-12-2c0 1 0 1 0 0h-2 2zm-34-6l-1 1v-1h1zm16 5l-1-1h-2c-1-1 0-1 1-1l2 2zm-12-3v1l-1 1c-1 1-1 1-1-1s3-3 2-1zM166 96l-1 1v-1h1zM32 76l-1 1v-1l1-1v1zm1157 189l-1 1v-1h1zM300 120c1 1 3 4 4 3h1l2 1h1l1 2v1l-2-1-2-1-2-1-2-1h-1l-1-2h-1v-1l1-1 1 1zM23 74l-1 1v1-3l1 1zm1159 191v2h-1l1-2zM321 125v3h-1v-2l1-1c-1 0-1 0 0 0zM31 79v1h-1v1h-1l1-1v-2l1 1zm1148 189l-1 1v-1h1zM325 128v-1 1zm-124-21l-1 2v-1c0-1 0-2 1-1zM32 81l1 1 1 1h-1l-1-2c0-2 0-2 0 0zm-3-1h-1v-1l1 1zm141 26c0 3-1 4-1 1v-2c1-1 1-1 1 1zM30 82c0-1 1 0 0 0zm282 47h-1v-1l1 1zM30 83l-1 2c0 1 0 1 0 0-1-2 0-2 1-2zm299 50v1l-1-1h1zM2 80l-1 1-1-1h2zm329 55h-1v-1h1v1zm-131-21l-1 2c0 1 0 1 0 0h-3c0 1 0 1 0 0l2-3h1l1 1zm2 1c0 1-1 2-2 1l1-2 1 1zm994 164v2l-1-1v-1h1zM326 136h-1l1-1v1zm-115-19v3l-1-1c0-1 0-1 0 0-1 1-1 0-1-2h2zm-2 1l-1 1v-2l1 1zm-38-7c0-1 0-1 0 0zm33 6h-1l1-1v1zm-19-3l1 1 1 2-2 1h-1s0-1 0 0l1-1h-1l-1-2c0-1 1-2 2-1zm-12-2l-1 3h-1v-2l2-1zM33 89v1l-1-1 1-1v1zm1161 191s1 0 0 0zM206 118h-1v-1l1 1zm9 2l-1 2c-1 1-2 0-1-2 0-1 0-1 0 0l1 1v-2l1 1zm-38-6h-1v-1l1 1zm-3 0v2h-1v-4l1 2zm-7-2l-1 1v-2l1 1zm9 2v2h-1c0 1 0 1 0 0l1-2zm1016 170l-2 3v-1l1-2 1-1v1zm-2 0l-1 2v-2h1zM177 117v1l-1-1h1zM38 94v2h-1v-2h1zm174 31l-1 1v-1h1zm976 162v1l-2-2 2 1zM30 97h-1v-1l1 1zm-14-3v2l-1 1h-1v-2l2-1zm16 4v1l-1-1h1zm3 2c1 0 0 1 0 0h-1 1zm-5 0l-1 1-1-2h1c1-1 1-1 1 1zm-9-1l1 4v2l-1-1-1-1h-1l-1-2h1l1-3 1 1zm10 3v1l1 1v1l-2-3h1zm-13-2v2h-1l-1-1v-1l1-1 1 1zm1170 193v1h-2l1-1h1zm11 5l1 2h-1c0 1 0 2-1 1h-2c-1 1-1 1 0 0l1-1v-1c1-2 1-2 2-1zM25 104v1l-1 1-1 1v-2l2-1zm9 5l-2 1v-1c1-2 2-2 2 0zm-8-2v1l-1 2c0 1 0 1 0 0v-2c-1-1 0-2 1-2v1zm1167 193h-2l1-1 1 1zM48 112c0 1 0 2-1 1v2c-1-1-1 0-1 1l1 1c0-1 1 0 0 0l1 1c2 0 4 2 3 3 0 1 0 1 0 0l-1-1h-1v-1h-2l-1-1h-1c0 1 0 0 0 0l1-2v-2l-1 1c-2 2-2 1-1-1 0-1 0-1 0 0h-2l1-1v-1h1v1l1 1c1 0 2-2 1-3l2 1zm-22-4l1 1h1v1l-2-1v-1zm3 2v-1 1zm9 2l-1 1v-1h1zm-9-1v2h-1l1-2zm9 4h-1 1zm2 1v1h-1l1-1zm-10-1v1l-1-1 1-1v1zm13 2v1h-1c0-1 0-1 0 0v1l1 1h1v1c-1 0-2 0-3-2s1-3 2-2zm-11 0h1c1-1 1 0 1 2l-1 1-1-1-2-3 2 1zm21 4h-1v-1l1 1zm-15-1l-1 5v1l-1-1c1-1 1-1 0 0l-1-1v-5l3 1zm-2 1v2c0 1 0 1 0 0l1-2h-1zm1145 189l-1 1v-1h1zM55 125c0 2-1 2-1 0v-1l1 1zm-10-2l-2 1 1-1h1s1 0 0 0zm-5-1l1 1h1v1c0-1 0 0 0 0v2h1v3l-1 1v-2l-1-2v-1c0-1 0-1 0 0v4h-1l-1-1v-1h-1s0-1 0 0v-1h1l1-1-1-1c0 1 0 0 0 0h-1v-1l1-1c0 1 0 1 0 0h1zm1142 189h-1l1-1v1zm-3-1v1h-1l1-1zm-2 3v3c0 1 0 1 0 0h1l1-1 1 1-1 1h-1l-3 1h-1l1-1 1-3-1-1v-1c0-2 1-2 2-2v3zm-3-2h-1v-1l1 1zM56 129c0 1-1 0 0 0v-1 1zm1129 186l-2 1c-1-1 0-2 1-2l1 1zM59 130h-1v-1l1 1zm-4-1v1-1s0-1 0 0zm1127 186l-1 1v-1h1zM46 130l-1 1-1 1h1l1 1-1 3-1-1-1-2c0 1 0 0 0 0v-3l1-1h1l1 1zm1127 188l-1 1v-1h1zm-3 1v1-1s0-1 0 0zm-2 1v2-2zM68 143v1-3 2zm1105 181l-1 1v-1h1zM70 144c1-1 1 0 0 0zm2 1v1l-1-1 1-1v1zm1106 182c0 1-1 2-3 2v-2h3zm-13-1l1 1v7l-1 2-1 1v-5l1-4v-2zM74 146l-1 1-1-1 1-1 1 1zm-3 0h-1l1-1v1zm4 1h-1l1-1v1zm2 2c0 2 0 3-1 2v-2h1zm-2 0v-1 1zm-20-2h-1v-1l1 1zm-1-1l-1 1v-1h1zm1120 191c-1 2-2 4-3 3h-1l-1-1-1-1 1-1h1l2-1 2-1v2zM47 153c-1 2 0 3 1 1h1l1 1c0-1 0 0 0 0 0 5-3 4-4-1v-2h1v1zm1111 181v1l-1-1h1c1 0 0 0 0 0zM48 154h-1v-1l1 1zm1108 182c-1 2-2 2-1 0l1-1v1zm-3 12l-1 2v-1c0-2 0-2 1-1zm4 2l-1 1c-2 1-2 1-1-1h1c-1 1-1 1 0 0h1zM50 173v-1 1zm-13 0h-1v-1l1 1zm1142 188h-1s0-1 0 0h1zm-5 4h-1l1-1v1zm-33-4l-1 2-1 2h-1l1-2c1-3 1-4 2-2zm-2 0l-1 1v-1l1-1v1zm-4 0v-1 1zm-5 3l-1 1v-2l1 1zm10 3l-1 1v-1h1zm-13-2l-2-1 1 1 1-1v1zm11 2s0 1 0 0v1l-1 1-1 1v-2l-1-1 2-1 1 1zm-5 0v2c0 2 0 2 0 0l-1-1v-1h1zm1 2h-1l1-1v1zm-6 1v2h-1v-1l1-1zm5 4l-1 2-1-1c0-2 0-2 2-2h1l-1 1zm-3 0h-1v-1c-1 0 0 0 0 0l1 1zm-9 0h-1v-1l1 1zm5 3v1h-1l1-1zm8 10c-1 2-1 3-1 1 0-1 0-3 1-2v1zm4 2v3l1 4-1-1-1-2v-5l1-1v2zm5 3l-1-1 1 1zm14 6v1l-1-1 1-1v1zm-29-2c1 2 2 3 3 1v1l-1 2h-1v-1h-1l-1-1-1 3 1 3-1 2-1-1v-3l1-2v-2l1-1v-2c0-2 1-1 1 1zm12 2v1-1c0-1 0-1 0 0zm1 1v2l2 3c0 4 0 5 2 4v1c-1 1-2 0-3-2l-1-2v-2l-1-2v-2h1zm-18-2v1l-2-1h2zm-3-1l-1 1h-1l1-1h1zm4 2c1-1 1-1 0 0zm-1 5l-2 5c0 5 1 7 3 3h1l1-2v-1 1l1 1 1 5v5l-1 2c0 3-1 4-2 3l-1-1-1-1h-1v-2l1-1c0-2 1-2 1 1 0 1 0 1 0 0v-5l-3-1-3-2-2-2h-3l1-1 1-1v-1h2c2 0 3 0 2-2v-1h-1l1-1 1 1c0 1 0 1 0 0l1-2 1-1 2-1-1 2zm6 8v-1 1zm9 11v-2 2zm-17-1l-1 1v-2l1 1zm-20 0v1l-1-1h1zm28 10v1l-1-1v-1l1 1zm-15-2h-2c-2 0-2 0-1-1 2-1 3 0 3 1zm18 4c-1 2-2 2-2 0l1-1 1 1zm-27-3l-1 2h-1l-5 2-1 1h-3 1l1-1h1l1-1 1-1 1-1 3-2 2 1zm24 4l-1 1 1-1c0-1 0-1 0 0zm-3 2h-1l1-1v1zm-37-6v1c-2-1-2-1-1-2l1 1zm18 7l-1 1v-1h1zm-2 1c-1 1-5 2-6 0h-2 4l2-1 2 1zm-35 3c0 1 0 2-1 1h-2v-1l1-1h2v1zm3 1l1 2-1-1-1-1c-2 0-2 0-1-1s2-1 2 1zm-7-1c1 1 0 2-1 2-2 1-3 1-2-1h-1l1-2 1 1-1 2 1-2h2zm60 13l-1 1v-1h1zM33 275l-1-1h1v1zm1015 173v1l-1-1h1zM42 287l-1 1v-1h1zm1116 184l-1 1 1-1zm-100-14v1l-1-1h1zm-6-1h-1v-1l1 1zm8 2l-1 1v-1h1zm-7-1c1 1 0 2-1 2v-2c0-1 0-1 0 0v1l1-1zm-6-1v1h-1l1-1zm-5 0l-1 2v-2l1-1v1zm62 11h-1l1-1v1zm-57-9v-1 1zm-3 0h-1v1l-1 2h-2v2l-1 1 1-3 1-1 1-1c0-2 1-3 2-1zm1 1l-1 1v-1h1zm25 5v2-2zm-3 1v1h-1v-1h1zM56 298v1l-1-1h1zm1009 168h-1l1-1v1zm12 2v2c-1 1-1 0-1-1v-1h1zm-30-4v1l-1-2 1 1zm51 9v1l-1-1h1c1 0 0 0 0 0zm-5 0h-1 1c2 0 1 1 0 2l-1 1h-1v-2l1-1 1-1v1zm-49-9h-1v-1l1 1zm31 6l-2 2v-1c1-2 2-2 2-1zm-33-5h-1v-1l1 1zm53 10v7l-1 3v2l-1 2v-5l-1-4v-1l1-1h1c0 1 0 1 0 0v-1l1-4v2zm-1 7v-1 1zm-7-8l1 1c0-1 0 0 0 0l-1 1v1h-3l-1 1-2-1v-5l1 2c0 2 1 2 1 1v-2h2c2-1 2 0 2 1zm-4 1h1l1-1-2 1zm-4-2c1 4 1 6-2 6v-6l-1-1h2c0-1 1-1 1 1zm-1 1v1h1v-1h-1zm-40-8h-2 2zm33 7l-1 1 1-2v1zm-24-2v2l-1 1v-1l1-2zm-9-1l-1 1 1-1c0-1 0-1 0 0zm-6-1l-1 1c0 1 0 1 0 0v-1h1c0-1 0-1 0 0zm40 7l-1 1 1-2v1zm-36-6v1-1c0-1 0-1 0 0zm44 8v1s-1 0 0 0v-1zm-23-3l-2 2 1-2h1zm-3 0v3l-1 1h-2l1-2 1-1 1-1c0-1 0-1 0 0zm21 6h-2l1-1c1-1 1-1 1 1zm-48-9l-1 1v-1h1zm45 9h-2l1-2 1 2zm-39-7l-1 1v-1l1-1v1zm24 4c1 1 0 1 0 0-1 0-1-1 0 0zm31 6v1h-1l-1-1h2zm-22-4l1 3-1 1h-3l-5-1h-2l-1 1v4l-1 2v-3l-1-2h1l1-1c1-1 0-2-1-1s-1 1 0 0l1-2 2 1v-1h2l2 1h2c0-2 2-3 3-2zm-8-1l1 1h-1v-1s0-1 0 0zm27 5v1h-1l-1-1h2zm8 3l-1 1v-2l1 1zm-40-5v2h-1v-2h1zm-21-3s0 1 0 0v-1 1zm16 4l-1 1v-2l1 1zm-28-5l-1 1v-1l1-1v1zm37 10l1 1c0-1 1-1 1 1l-1 6h-1c-1 2-1 1-1-1 1-1 0-2-1-1h-3l-3-1h-2l1-2 2 1v1l2-1 4-4c0-2 1-2 1 0zm0 4c-1 1 0 1 0 0v-1 1zm0 3l1-1-1 1zM39 328l-1 1v-1h1zm35 6l-1 1v-1h1zm984 166c1 0 1 1 0 0h-1 1zm-35-6h-1c0 1 0 0 0 0v-1l1 1zM70 338v1h-2l1-1h1zm2 2v1l-1-1h1zm2 1l1 2c1 1 1 1 0 0v1h-1v-1l-1-1c0 1 0 0 0 0v-1h1zm-1 1l-1 1v-1h1zm5 3h-1l-1-1 2 1zm-6 2l-1 2c-1-2 0-3 1-2zm-3 1c0 2-1 3-1 1l-1-2 2-1v2zm1 1v1l-1-1h1zm3 1l-1 1v-1l1-1v1zm-1 1l-1 1v-2l1 1zm31 8l-1 1 1-1zm-35-5v-1 1zm5 3h-1v-1l1 1zm-15-3l-1 2-1-1 1-1h1zm2 1v-1 1zm-1 1v1c1-1 1 0 1 2l-1 1-1-1v-2c1-3 2-4 1-1zm6 5c0 2-1 3-1 0v-1l1-1v2zm4-1l-1 1v-1h1zm-1 1l-1 2v-2l1-2v2zm-5-1l1 1c-1 2-1 2-1 0l-2-1v-1h1l1 1zm71 13h-1v-1h1v1zm-2-1c0 2 0 2-1 1v-1h1zm4 2v1l-2-2 1 1h1v-1 1zm-65-9l-1 1v-1h1zm75 13h-1v-1l1 1zm-47-7c1 0 1 0 0 0l-1 1-1-1h2zm936 156v1l-1-1h-1v-1l2 1zm-9-1v1c-1 1-1 0-1-1h1zM163 383l-1 2v-1l1-1zm3 2h-1c0 1 0 1 0 0v-1l1 1zm-6-1h-1l1-1v1zm-27-4v-1 1zm31 5l-1 1v-1l1-1v1zm-82-13s0 1 0 0l-1-1h1v1zm86 14l-1 1v-1s0-1 0 0h1zm-31-5h-1l-1 1v-1h2c1 0 1 0 0 0zm-74-11v3l-1 1c-1 0-2-2-1-3 0-1 1-2 2-1zm108 18l-1 1v-1h1zm-24-3l-1 1v-1h1zm-82-14h-1c-1 0 0 0 0 0h1zm32 7l-2 2-1-1h-1c0-2 1-2 1-1h3zm-6-1h-1 1zm7 3l-1 1v-1h1zm4 1l-1 2-1-1 2-1zm48 9l-1 1v-1h1zm-45-7l-1 1-1-1 1-1 1 1zm51 11l1 2-2-2-1-1v2l-1-1h-1v-1l1-1c2 0 3 0 3 2zm-48-9v1l-1-1v-1l1 1zm-2 0c0 1-1 0 0 0v-1 1zm75 14c0 1 0 1 0 0l-1-1h1v1zm-67-12h-1s-1 0 0 0v-1l1 1zm110 19s-1 0 0 0v-1 1zm-107-18l-1 1-1-1h2zm53 10v1l1 1-2-1v-2l1 1zm-5-1c0 2 0 2-1 1v-1h1c1-1 1-1 0 0zm-1-1h-2 2zm-43-6h-1l1-1v1zm-2-1h-1 1zm58 11c0 2 0 3-2 2l-2-2h1v-1 1c0 2 1 2 2 0h1zm-5-1v2-2c1 0 1 0 0 0zm-48-7l1 1-1-1c0-1-1-1 0 0zm224 38v1l-1-1h1zm-165-27l1 1h-1l-1-1h1zm-3 0h-1v-1l1 1zm-47-8v1l-1-1 1-1v1zm145 25v1-1c0-1 0-1 0 0zm-69-11l-1 1v-1h1zm73 13c0-1 0-1 0 0zm-3-1v1-1zm-63-10v1c0-1 0 0 0 0l-1 1v-2h1zm-3-1l-1 2c-2 1-4 1-4-1h3l2-1zm-69-11v1h2c0 2-2 1-3 0l-2-1h-1 4zm152 26v1l-1-1 1-1v1zm-2-1c1 0 1 0 0 0zm-73-12l-1 1v-1h1zm86 15h-1l1-1v1zm-5-1v1l-1-1h1zm-84-14l-1 1v-1h1zm-69-11l-1 1v-1l1-1v1zm166 28c0-1 0-1 0 0zm-5-1h1v1h-1v-1s0-1 0 0zm-103-17l-1 1v-1h1zm-56-8h-1l1-2v2zm163 27h-1v-1l1 1zm-88-14v3h-1v-1h-1l-1-1 2-1 1-1v-1 2zm3 0l1 2-2 1 1-1h-1l-1-1 1-2 1 1zm-6 0v1-2 1zm-3-1v2-2h-1 1zm102 17v-1 1zm-8-1v-1 1zm-93-15v-1 1zm-7-2v2-2zm19 4l-1 1c0 1 0 1 0 0h-1l1-1h1zm-67-11c-1 0-1 0 0 0v1h-1v-2l1 1zm-4-1h-1 1zm83 15l-1 1c0-1 0 0 0 0v2h-1v-1l-1 1-1-1 1-3c1-1 3 0 3 1zm-10-2h-1l1-1v1zm-1 0l-1 1v-1h1zm-16-3v-1 1zm-2-1l-1 1v-1h1zm-55-9l-1 1v-1h1zm188 32c0-1 0 0 0 0zm-109-17v2c-2-1-3-4-1-4v1c-1 0 0 0 0 0 1-1 1-1 1 1zm-18-4v1l-1-1h1zm133 23l-1 1-1-1 1-1 1 1zm-2-1v1l-1-1h1zm-6-1s1 0 0 0zm-100-16l-1 1-1-1h2zm-6-1h-1 1zm-3-1l-1 1v-1h1zm-67-10c1 1 0 1 0 0v-1 1zm192 32s0 1 0 0v-1 1zm-1 0l-1 1h-1v-1h-1l1-1 2 1zm-182-29h-1v-1h1v1zm-2-1v1-2 1zm189 32v-1 1zm-4-1l-1 1v-1h1zm-108-17l-1 1c0-1 0-1 0 0h-1l-1-1h3zm126 21l-1 1v-1h1zm-121-19h1c0-1 2-1 2 1l-3 1-2-2 1-1 1 1zm-4-1h-1v-1l1 1zm-6-2l-1 1 1-1zm138 24v-1 1zm-3-1c0 1 0 3-1 1l1-1c1 0 0 0 0 0zm-1 0h-1v-1l1 1zm-6-1v-1 1zm167 29c1 0 1 1 0 0h-1v-1l1 1zm-152-24c0 1 0 1 0 0l1 1c-1 0-2-1-1-2v1zm-3-1s0 1 0 0v-2 2zm-120-20v1c-1 1-4-1-3-2l1-1 1 1h1v1zm-6-2v1c0 1 0 1 0 0l-1-1h1zm131 23v1-1s0-1 0 0zm-116-20l1 1v1l-1 1-2-2h-1 2c-1-2 0-2 1-1zm-82-14l-1 1-1-1h2zm203 35l-1 1v-1h1zm-113-19c-1 2-1 2-4 2-2 0-2 0-2-2h6c0-1 0-1 0 0zm-14-2v1h-1v-1c0-1 0-1 0 0h-1l2-1v1zm2 1l-1-1h1v1zm143 25v-1 1zm-3-1v1-1zm-125-22l1 1 2 1h3c-1 2 0 2 1 0l1 1h1c1-1 3 0 3 1l-2 1-2-1c0 1 0 1 0 0l-1 1-2-2h-1c-1 1-5 0-5-2l1-1zm-2 1l-1 1v-2h1v1zm136 23v1l-1-1v-1l1 1zm-83-15l-1 1v-1h1zm-124-20l-1 1v-1h1zm-9-2h-1 1zm375 64l1 1h-1c-2 0-2-1-1-2l1 1zm-278-46l1 1c1-1 1 0 1 1h-3l-1-2 1-2 1 2zm153 26v1h-1c-1-1 0-2 1-1zm-146-24l2 1c2 0 1 2-1 2l-2-1v-2l-1 1h-1l1-2c2-1 2-1 2 1zm-3-2l-1 3v-2l1-1zm-86-14v1l-1-1h1zm-2 0h-1l1-1v1zm241 41l-1 1v1-2h1zm-6-1l-2 1c-1-1-1-2 1-1h1zm-229-39v1h-1l1-1zm233 40l-1 1v-1h1zm-226-37v-1 1zm255 43l2 1v1l1 1c0 1 0 1 0 0h2v2h-1c0 1 0 1 0 0h-4l-1-3c0-1 0-3-1-1h-2l-1-1 1-1 1 1h3zm0 3h1v-1c0-1 0-1 0 0l-1-1c1-1 0-1 0 0v2zm-7-4l1 1-2-1h-2c0 2 0 2 0 0l3-1v1zm-5-1h1v1h-2v-1c0-1 0-1 0 0h1c0-1 0-1 0 0zm-2 0c0-1 1-1 0 0zm-7-1l-1 1 1-1v-1 1zm-2-1l-1 1v-1h-1l1-1 1 1zm-95-16l-1 1-1-1h2zm-135-23v1l-1-1h1zm265 46c0 1 0 1 0 0l1-1 1 2h1l1-1 1 2 1 1c-1 1-2 0-2-1h-1l-1 1-1-1h-2l-2-1h-1l-1 1h-1l1-1v-1l1-1 4 1zm-7-2h-2 2zm-167-28v1h3l3 1-1 1-2 2-1-3c0-1 0-1 0 0l-3 1-3-2c0-1 0-1 0 0h-3l-2-2h1c0 1 0 0 0 0h2l1 1c0 1 0 1 0 0v-1c0 1 0 0 0 0 0-1 1-1 2 1h3zm-10-2l-1 2-1-1h1v-1h1zm-75-12l-1 1v-2l1 1zm-2 0h-1v-1h1v1zm256 43l-1 1-1-1 1-1 1 1zm-22-4l-1 1-1-1h2zm-156-26l-1 1v-1h1zm-7-1h-1l1-1v1zm75 14v-1 1zm-46-7c0 1 0 1 0 0h1v1h1c0 2-2 2-3 0 0-1 0-1 0 0h-1s0-1 0 0h-1l-1-1v-2 2l2-2 2 2zm-5-2v3l-2-1 1-2v-1l1 1zm616 102l-1 1v-1s0-1 0 0h1zm-604-98v1h-3l-2-2h1l2 1h2zm602 99l-1 1c-1-1 0-2 1-2v1zm-43-8l-1 1 1-1zm-408-65v-1 1zm-141-24v1-1zm-2 0v1h-1c0 1-1 1-2-1v-1l1 1h2zm-5 0c1 0 1 0 0 0l-1-1c1-1 1-1 1 1zm617 101l1 2-1 2c-1 0-1 0 0 0l-1 1c-2 0-3 0-2-1l1-2v-2l1-1 1 1zM287 444c1 2 0 2-1 1v-2l1 1zm677 112v2c0-1 0 0 0 0v1l-1-1v2l-1 1h-1v1h-3v-4l-2 2-2 1-3-1h-1c0 1 0 1 0 0l1-1v-1c0-1 0-1 0 0h2l1-1 2-1h2l1 1v2l1-1 1-1h1l1-1h1zm-4 4c0 1 0 0 0 0v-1 1zm-7 0l1-1h-1v1zM296 446l-1 1-1-1h2zm-11-1h-1l-1-1h1l1 1zm648 108h-2l1-1 1 1zm-461-76v1l-1-1 1-1v1zm417 69h-1v-1l1 1zm-4-1v1h-4v-1h4zm-415-68l-1 1v-1h1zm-153-24l-1 1v-1h-1l1-1 1 1zm-4-1v1-1zm5 2c1 1 0 1 0 0v-1 1zm561 92h-1v-1l1 1zm-545-89c2 0 2 1 2 2h-1l-1-1c-1 1-2 0-2-1h1c0 1 0 1 0 0v-1l1 1zm195 32l-2 2v-1l-1-1h-1 4zm-158-26l-1 1v-1h1zm-40-6v-1 1zm538 88l-1 1v-1h1zm-529-85c-2 1-2 0-2-1l2-1 1 1-1 1zm-3-2v1s-1 0 0 0v-1zm612 102h-2 2zm-85-14l-1 1h-1l1-1h1zm-402-65v2c-1 1-2 1-2-1 0-1 0-1 0 0v4h-1l-2-1 2-2v-4 1h1l2 1zm-19-4v1l-1-1h1zm-98-16l-1 1v-2l1 1zm-3-1h-1 1zm104 18h-1 1zm415 69c1 0 1 0 0 0h-1 1zm-395-64h-1l1-1v1zm-8-2c0 1 0 2-1 1v-1l1-1v1zm-5-1l-1 1-1-1h-1 3zm-25-4l-1 1v-1h1zm47 8v1h-4l-1 1c-1 2-2 3-2 1h-3l-2-1h-1l-1-1v-1h2l1-1c1-1 1-1 0 0l1 2h1c1 1 1 1 2-1l1-1v4l1-4h2l3 1zm-95-15c0 1 0 3-1 2-1 0-1 0 0 0v-2h1zm-16-2v1l-1-1 1-1v1zm70 12h-1l-1-1h2v1zm-53-8h-1v-1l1 1zm6 1c0 1 0 1 0 0l-1 1h-1l1-1h1zm63 11v1l-1-1 1-1v1zm-44-6h-1v-1l1 1zm1 0h-1c0 1 0 0 0 0h1zm-8-1h-1v-1l1 1zm18 4h-1v-1l1 1zm29 6h-1 1zm-2 0l-1 1v-1h1zm-2 0h-3l1-1h2v1zm421 69v1c-1 1-2 0-2-1h2zm-120-17c1 2 0 2-1 1-1-2-2-2-2-1l-1-1c0-1 0-1 0 0l-1 1-1-1c0-2 5-1 6 1zm-7-2l-1 1h-1l-1 2-1-1v-1l-1 1v-1l2-2 3 1zm-6-1v2l-1 1c0 1 0 1 0 0 0-2 0-2-1-1s-2 1-2-1v-1l1 2 1-2h2zm-258-42h-1v-1l1 1zm-3 0h-1l1-1v1zm251 41l1 1 1 1v1h1l1-1h1c0 2 0 2-1 1h-1l-1 1h-1l-1-1v1h-2c0-1 0-1 0 0h-1v-2l1-1v1l1-2h1zm-4 0v4-2c0-1 0-2-1-1l-1-1h2zm-3 0v3h-1l-2-1h-1l-2 1v-2h-1v1l-1 1h-1l-3-1h1c1 0 2 0 1-1l-1-2h1l1 1h1v2l1-2c0-1 1-1 2 1l1-1c0-1 0-1 0 0 1 1 2 2 2 0h2zm288 48l-1 2v-2c0 1 0 1 0 0h1zm-299-48h-1c-1-1-2 0-2 1l-2 2h-1v-2c1 0 0 0 0 0-1 1-2 0-1-2h3l4 1zm-7-1h-1v-1l1 1zm19 4v1-2 1zm-21-4l-1 1v-2l1 1zm272 47h-1l1-1v1zm-271-44h-1v-1l1 1zm-2 0v-1 1zm301 50v1h-1l1-1zm-35-5h-1 1zm-286-47v1l-1-1h1zm328 65v1l-1-1h1z" fill="#12003D"></path><path d="M424 50l176 301L774 50H667l-67 116-68-116H424z" fill="#35495E"></path><path d="M310 50l290 500L890 50H774L600 350 424 50H310z" fill="#41B883"></path></svg> 