<?xml version="1.0" encoding="utf-8"?>
<svg width="579" height="324.464" viewBox="0 0 579 324.464" fill="none" stroke="none" version="1.1" xmlns:xlink="http://www.w3.org/1999/xlink" xmlns="http://www.w3.org/2000/svg">
  <defs>
    <rect id="rect_1" x="0" y="0" width="114.793" height="244.69" />
    <clipPath id="clip_path_2">
      <use xlink:href="#rect_1" />
    </clipPath>
    <rect id="rect_3" x="0" y="0" width="78.543" height="244.69" />
    <clipPath id="clip_path_4">
      <use xlink:href="#rect_3" />
    </clipPath>
    <rect id="rect_5" x="0" y="0" width="84.584" height="244.69" />
    <clipPath id="clip_path_6">
      <use xlink:href="#rect_5" />
    </clipPath>
  </defs>
  <g id="SingleElement">
    <rect id="Rectangle" width="579" height="304.101" style="fill:#000000;fill-rule:evenodd;mix-blend-mode:normal;" />
    <g clip-path="url(#clip_path_2)" style="mix-blend-mode:normal;" transform="translate(239.656 72.501)">
      <path d="M3.024 147.456Q3.024 142.128 6.408 138.456Q9.792 134.784 15.408 134.784Q21.168 134.784 24.48 138.456Q27.792 142.128 27.792 147.456Q27.792 152.64 24.48 156.312Q21.168 159.984 15.408 159.984Q9.792 159.984 6.408 156.312Q3.024 152.64 3.024 147.456ZM105.12 126.432L83.952 126.432L83.952 113.616Q83.952 108.144 80.784 105.696Q77.616 103.248 72.576 103.248Q68.976 103.248 65.952 104.112Q62.928 104.976 60.336 106.272L60.336 126.432L39.168 126.432L39.168 103.968Q39.168 100.368 40.68 97.992Q42.192 95.616 45.216 93.744Q49.824 90.576 56.952 88.488Q64.08 86.4 72.72 86.4Q88.272 86.4 96.696 93.24Q105.12 100.08 105.12 112.896L105.12 126.432ZM60.336 119.808L60.336 157.536Q59.04 157.824 56.448 158.256Q53.856 158.688 50.832 158.688Q44.784 158.688 41.976 156.528Q39.168 154.368 39.168 148.752L39.168 119.808L60.336 119.808ZM105.12 119.808L105.12 157.536Q103.824 157.824 101.232 158.256Q98.64 158.688 95.616 158.688Q89.568 158.688 86.76 156.528Q83.952 154.368 83.952 148.752L83.952 119.808L105.12 119.808Z" style="fill:#FFFFFF;" />
    </g>
    <g clip-path="url(#clip_path_4)" style="mix-blend-mode:normal;" transform="matrix(0.866 -0.5 0.5 0.866 300.551 112.555)">
      <path d="M17.424 118.8L53.28 113.184Q52.848 109.008 49.68 105.624Q46.512 102.24 40.32 102.24Q33.696 102.24 29.376 106.632Q25.056 111.024 24.912 119.232L25.488 129.024Q26.928 136.944 32.4 140.328Q37.872 143.712 45.36 143.712Q51.408 143.712 56.736 142.056Q62.064 140.4 65.376 138.384Q67.392 139.68 68.832 141.984Q70.272 144.288 70.272 146.88Q70.272 151.2 66.888 154.08Q63.504 156.96 57.528 158.4Q51.552 159.84 43.92 159.84Q32.832 159.84 24.048 155.664Q15.264 151.488 10.224 143.136Q5.184 134.784 5.184 122.256Q5.184 113.04 8.064 106.272Q10.944 99.504 15.912 95.112Q20.88 90.72 27.144 88.56Q33.408 86.4 40.176 86.4Q50.112 86.4 57.528 90.36Q64.944 94.32 69.12 101.088Q73.296 107.856 73.296 116.784Q73.296 121.248 70.848 123.48Q68.4 125.712 64.08 126.432L18.288 133.2L17.424 118.8Z" style="fill:#FFFFFF;" />
    </g>
    <g clip-path="url(#clip_path_6)" style="mix-blend-mode:normal;" transform="matrix(1 0 0 1 444.342 72.075)">
      <path d="M78.048 123.12Q78.048 134.352 73.584 142.632Q69.12 150.912 60.912 155.376Q52.704 159.84 41.616 159.84Q30.528 159.84 22.32 155.448Q14.112 151.056 9.648 142.776Q5.184 134.496 5.184 123.12Q5.184 111.888 9.72 103.68Q14.256 95.472 22.536 90.936Q30.816 86.4 41.616 86.4Q52.56 86.4 60.768 90.936Q68.976 95.472 73.512 103.752Q78.048 112.032 78.048 123.12ZM41.616 103.248Q34.848 103.248 30.888 108.432Q26.928 113.616 26.928 123.12Q26.928 132.768 30.816 137.952Q34.704 143.136 41.616 143.136Q48.672 143.136 52.488 137.88Q56.304 132.624 56.304 123.12Q56.304 113.76 52.416 108.504Q48.528 103.248 41.616 103.248Z" style="fill:#FFFFFF;" />
    </g>
    <path id="Path" d="M0 157.947C1.22565 159.08 2.48468 160.189 3.77704 161.274C47.4438 197.914 112.546 192.219 149.187 148.552C185.828 104.885 180.132 39.7828 136.465 3.142C135.173 2.05762 133.862 1.01031 132.533 0L0 157.947Z" style="fill:#FFFFFF;fill-rule:evenodd;mix-blend-mode:normal;" transform="translate(72.578 64.498)" />
  </g>
</svg>